<?xml version="1.0" encoding="UTF-8" standalone="no"?>
<!DOCTYPE svg PUBLIC "-//W3C//DTD SVG 1.1//EN"
 "http://www.w3.org/Graphics/SVG/1.1/DTD/svg11.dtd">
<!-- Generated by graphviz version 5.0.0 (20220707.1540)
 -->
<!-- Title: dependencies Pages: 1 -->
<svg width="898pt" height="247pt"
 viewBox="0.00 0.00 898.00 246.80" xmlns="http://www.w3.org/2000/svg" xmlns:xlink="http://www.w3.org/1999/xlink">
<g id="graph0" class="graph" transform="scale(1 1) rotate(0) translate(4 242.8)">
<title>dependencies</title>
<polygon fill="white" stroke="transparent" points="-4,4 -4,-242.8 894,-242.8 894,4 -4,4"/>
<text text-anchor="middle" x="445" y="-8.2" font-family="sans-serif" font-size="14.00">dependencies</text>
<g id="clust1" class="cluster">
<title>cluster_ForoModule</title>
<polygon fill="none" stroke="black" stroke-dasharray="1,5" points="8,-32.8 8,-230.8 882,-230.8 882,-32.8 8,-32.8"/>
</g>
<g id="clust2" class="cluster">
<title>cluster_ForoModule_declarations</title>
<polygon fill="none" stroke="black" points="288,-40.8 288,-92.8 874,-92.8 874,-40.8 288,-40.8"/>
</g>
<g id="clust7" class="cluster">
<title>cluster_ForoModule_imports</title>
<polygon fill="none" stroke="black" points="16,-40.8 16,-92.8 280,-92.8 280,-40.8 16,-40.8"/>
</g>
<g id="clust8" class="cluster">
<title>cluster_ForoModule_exports</title>
<polygon fill="none" stroke="black" points="406,-170.8 406,-222.8 534,-222.8 534,-170.8 406,-170.8"/>
</g>
<!-- DialogAddPost -->
<g id="node1" class="node">
<title>DialogAddPost</title>
<polygon fill="#ffffb3" stroke="black" points="866.34,-84.8 763.66,-84.8 763.66,-48.8 866.34,-48.8 866.34,-84.8"/>
<text text-anchor="middle" x="815" y="-62.6" font-family="Times,serif" font-size="14.00">DialogAddPost</text>
</g>
<!-- ForoModule -->
<g id="node5" class="node">
<title>ForoModule</title>
<polygon fill="#8dd3c7" stroke="black" points="513,-149.8 510,-153.8 489,-153.8 486,-149.8 427,-149.8 427,-113.8 513,-113.8 513,-149.8"/>
<text text-anchor="middle" x="470" y="-127.6" font-family="Times,serif" font-size="14.00">ForoModule</text>
</g>
<!-- DialogAddPost&#45;&gt;ForoModule -->
<g id="edge1" class="edge">
<title>DialogAddPost&#45;&gt;ForoModule</title>
<path fill="none" stroke="black" d="M815,-85.08C815,-106.12 815,-137.8 815,-137.8 815,-137.8 523.35,-137.8 523.35,-137.8"/>
<polygon fill="black" stroke="black" points="523.35,-134.3 513.35,-137.8 523.35,-141.3 523.35,-134.3"/>
</g>
<!-- ForoComponent -->
<g id="node2" class="node">
<title>ForoComponent</title>
<polygon fill="#ffffb3" stroke="black" points="745.78,-84.8 638.22,-84.8 638.22,-48.8 745.78,-48.8 745.78,-84.8"/>
<text text-anchor="middle" x="692" y="-62.6" font-family="Times,serif" font-size="14.00">ForoComponent</text>
</g>
<!-- ForoComponent&#45;&gt;ForoModule -->
<g id="edge2" class="edge">
<title>ForoComponent&#45;&gt;ForoModule</title>
<path fill="none" stroke="black" d="M692,-84.82C692,-102.17 692,-125.8 692,-125.8 692,-125.8 523.07,-125.8 523.07,-125.8"/>
<polygon fill="black" stroke="black" points="523.07,-122.3 513.07,-125.8 523.07,-129.3 523.07,-122.3"/>
</g>
<!-- PostListComponent -->
<g id="node3" class="node">
<title>PostListComponent</title>
<polygon fill="#ffffb3" stroke="black" points="619.73,-84.8 492.27,-84.8 492.27,-48.8 619.73,-48.8 619.73,-84.8"/>
<text text-anchor="middle" x="556" y="-62.6" font-family="Times,serif" font-size="14.00">PostListComponent</text>
</g>
<!-- PostListComponent&#45;&gt;ForoModule -->
<g id="edge3" class="edge">
<title>PostListComponent&#45;&gt;ForoModule</title>
<path fill="none" stroke="black" d="M502.69,-84.91C502.69,-84.91 502.69,-103.79 502.69,-103.79"/>
<polygon fill="black" stroke="black" points="499.19,-103.79 502.69,-113.79 506.19,-103.79 499.19,-103.79"/>
</g>
<!-- PostManagementComponent -->
<g id="node4" class="node">
<title>PostManagementComponent</title>
<polygon fill="#ffffb3" stroke="black" points="474.04,-84.8 295.96,-84.8 295.96,-48.8 474.04,-48.8 474.04,-84.8"/>
<text text-anchor="middle" x="385" y="-62.6" font-family="Times,serif" font-size="14.00">PostManagementComponent</text>
</g>
<!-- PostManagementComponent&#45;&gt;ForoModule -->
<g id="edge4" class="edge">
<title>PostManagementComponent&#45;&gt;ForoModule</title>
<path fill="none" stroke="black" d="M450.63,-84.91C450.63,-84.91 450.63,-103.79 450.63,-103.79"/>
<polygon fill="black" stroke="black" points="447.13,-103.79 450.63,-113.79 454.13,-103.79 447.13,-103.79"/>
</g>
<!-- ForoComponent  -->
<g id="node8" class="node">
<title>ForoComponent </title>
<polygon fill="#fb8072" stroke="black" points="525.78,-214.8 414.22,-214.8 414.22,-178.8 525.78,-178.8 525.78,-214.8"/>
<text text-anchor="middle" x="470" y="-192.6" font-family="Times,serif" font-size="14.00">ForoComponent </text>
</g>
<!-- ForoModule&#45;&gt;ForoComponent  -->
<g id="edge7" class="edge">
<title>ForoModule&#45;&gt;ForoComponent </title>
<path fill="none" stroke="black" stroke-dasharray="5,2" d="M470,-149.91C470,-149.91 470,-168.79 470,-168.79"/>
<polygon fill="black" stroke="black" points="466.5,-168.79 470,-178.79 473.5,-168.79 466.5,-168.79"/>
</g>
<!-- ForoRoutingModule -->
<g id="node6" class="node">
<title>ForoRoutingModule</title>
<polygon fill="#8dd3c7" stroke="black" points="271.62,-84.8 268.62,-88.8 247.62,-88.8 244.62,-84.8 140.38,-84.8 140.38,-48.8 271.62,-48.8 271.62,-84.8"/>
<text text-anchor="middle" x="206" y="-62.6" font-family="Times,serif" font-size="14.00">ForoRoutingModule</text>
</g>
<!-- ForoRoutingModule&#45;&gt;ForoModule -->
<g id="edge5" class="edge">
<title>ForoRoutingModule&#45;&gt;ForoModule</title>
<path fill="none" stroke="black" d="M206,-84.82C206,-102.17 206,-125.8 206,-125.8 206,-125.8 417,-125.8 417,-125.8"/>
<polygon fill="black" stroke="black" points="417,-129.3 427,-125.8 417,-122.3 417,-129.3"/>
</g>
<!-- SharedModule -->
<g id="node7" class="node">
<title>SharedModule</title>
<polygon fill="#8dd3c7" stroke="black" points="122.43,-84.8 119.43,-88.8 98.43,-88.8 95.43,-84.8 23.57,-84.8 23.57,-48.8 122.43,-48.8 122.43,-84.8"/>
<text text-anchor="middle" x="73" y="-62.6" font-family="Times,serif" font-size="14.00">SharedModule</text>
</g>
<!-- SharedModule&#45;&gt;ForoModule -->
<g id="edge6" class="edge">
<title>SharedModule&#45;&gt;ForoModule</title>
<path fill="none" stroke="black" d="M73,-85.08C73,-106.12 73,-137.8 73,-137.8 73,-137.8 416.76,-137.8 416.76,-137.8"/>
<polygon fill="black" stroke="black" points="416.76,-141.3 426.76,-137.8 416.76,-134.3 416.76,-141.3"/>
</g>
</g>
</svg>
