<?xml version="1.0" encoding="UTF-8" standalone="no"?>
<!DOCTYPE svg PUBLIC "-//W3C//DTD SVG 1.1//EN"
 "http://www.w3.org/Graphics/SVG/1.1/DTD/svg11.dtd">
<!-- Generated by graphviz version 5.0.0 (20220707.1540)
 -->
<!-- Title: dependencies Pages: 1 -->
<svg width="288pt" height="174pt"
 viewBox="0.00 0.00 288.00 173.80" xmlns="http://www.w3.org/2000/svg" xmlns:xlink="http://www.w3.org/1999/xlink">
<g id="graph0" class="graph" transform="scale(1 1) rotate(0) translate(4 169.8)">
<title>dependencies</title>
<polygon fill="white" stroke="transparent" points="-4,4 -4,-169.8 284,-169.8 284,4 -4,4"/>
<text text-anchor="middle" x="140" y="-8.2" font-family="sans-serif" font-size="14.00">dependencies</text>
<g id="clust1" class="cluster">
<title>cluster_MainModule</title>
<polygon fill="none" stroke="black" stroke-dasharray="1,5" points="8,-32.8 8,-157.8 272,-157.8 272,-32.8 8,-32.8"/>
</g>
<g id="clust4" class="cluster">
<title>cluster_MainModule_imports</title>
<polygon fill="none" stroke="black" points="150,-40.8 150,-92.8 264,-92.8 264,-40.8 150,-40.8"/>
</g>
<g id="clust2" class="cluster">
<title>cluster_MainModule_declarations</title>
<polygon fill="none" stroke="black" points="16,-40.8 16,-92.8 142,-92.8 142,-40.8 16,-40.8"/>
</g>
<!-- MainComponent -->
<g id="node1" class="node">
<title>MainComponent</title>
<polygon fill="#ffffb3" stroke="black" points="134.38,-84.8 23.62,-84.8 23.62,-48.8 134.38,-48.8 134.38,-84.8"/>
<text text-anchor="middle" x="79" y="-62.6" font-family="Times,serif" font-size="14.00">MainComponent</text>
</g>
<!-- MainModule -->
<g id="node2" class="node">
<title>MainModule</title>
<polygon fill="#8dd3c7" stroke="black" points="187.6,-149.8 184.6,-153.8 163.6,-153.8 160.6,-149.8 98.4,-149.8 98.4,-113.8 187.6,-113.8 187.6,-149.8"/>
<text text-anchor="middle" x="143" y="-127.6" font-family="Times,serif" font-size="14.00">MainModule</text>
</g>
<!-- MainComponent&#45;&gt;MainModule -->
<g id="edge1" class="edge">
<title>MainComponent&#45;&gt;MainModule</title>
<path fill="none" stroke="black" d="M116.44,-84.91C116.44,-84.91 116.44,-103.79 116.44,-103.79"/>
<polygon fill="black" stroke="black" points="112.94,-103.79 116.44,-113.79 119.94,-103.79 112.94,-103.79"/>
</g>
<!-- SharedModule -->
<g id="node3" class="node">
<title>SharedModule</title>
<polygon fill="#8dd3c7" stroke="black" points="256.43,-84.8 253.43,-88.8 232.43,-88.8 229.43,-84.8 157.57,-84.8 157.57,-48.8 256.43,-48.8 256.43,-84.8"/>
<text text-anchor="middle" x="207" y="-62.6" font-family="Times,serif" font-size="14.00">SharedModule</text>
</g>
<!-- SharedModule&#45;&gt;MainModule -->
<g id="edge2" class="edge">
<title>SharedModule&#45;&gt;MainModule</title>
<path fill="none" stroke="black" d="M172.67,-84.91C172.67,-84.91 172.67,-103.79 172.67,-103.79"/>
<polygon fill="black" stroke="black" points="169.17,-103.79 172.67,-113.79 176.17,-103.79 169.17,-103.79"/>
</g>
</g>
</svg>
