<?xml version="1.0" encoding="UTF-8" standalone="no"?>
<!DOCTYPE svg PUBLIC "-//W3C//DTD SVG 1.1//EN"
 "http://www.w3.org/Graphics/SVG/1.1/DTD/svg11.dtd">
<!-- Generated by graphviz version 5.0.0 (20220707.1540)
 -->
<!-- Title: dependencies Pages: 1 -->
<svg width="548pt" height="174pt"
 viewBox="0.00 0.00 548.00 173.80" xmlns="http://www.w3.org/2000/svg" xmlns:xlink="http://www.w3.org/1999/xlink">
<g id="graph0" class="graph" transform="scale(1 1) rotate(0) translate(4 169.8)">
<title>dependencies</title>
<polygon fill="white" stroke="transparent" points="-4,4 -4,-169.8 544,-169.8 544,4 -4,4"/>
<text text-anchor="middle" x="270" y="-8.2" font-family="sans-serif" font-size="14.00">dependencies</text>
<g id="clust1" class="cluster">
<title>cluster_WorkRequestsModule</title>
<polygon fill="none" stroke="black" stroke-dasharray="1,5" points="8,-32.8 8,-157.8 532,-157.8 532,-32.8 8,-32.8"/>
</g>
<g id="clust2" class="cluster">
<title>cluster_WorkRequestsModule_declarations</title>
<polygon fill="none" stroke="black" points="344,-40.8 344,-92.8 524,-92.8 524,-40.8 344,-40.8"/>
</g>
<g id="clust4" class="cluster">
<title>cluster_WorkRequestsModule_imports</title>
<polygon fill="none" stroke="black" points="16,-40.8 16,-92.8 336,-92.8 336,-40.8 16,-40.8"/>
</g>
<!-- WorkRequestsComponent -->
<g id="node1" class="node">
<title>WorkRequestsComponent</title>
<polygon fill="#ffffb3" stroke="black" points="515.76,-84.8 352.24,-84.8 352.24,-48.8 515.76,-48.8 515.76,-84.8"/>
<text text-anchor="middle" x="434" y="-62.6" font-family="Times,serif" font-size="14.00">WorkRequestsComponent</text>
</g>
<!-- WorkRequestsModule -->
<g id="node2" class="node">
<title>WorkRequestsModule</title>
<polygon fill="#8dd3c7" stroke="black" points="349.98,-149.8 346.98,-153.8 325.98,-153.8 322.98,-149.8 208.02,-149.8 208.02,-113.8 349.98,-113.8 349.98,-149.8"/>
<text text-anchor="middle" x="279" y="-127.6" font-family="Times,serif" font-size="14.00">WorkRequestsModule</text>
</g>
<!-- WorkRequestsComponent&#45;&gt;WorkRequestsModule -->
<g id="edge1" class="edge">
<title>WorkRequestsComponent&#45;&gt;WorkRequestsModule</title>
<path fill="none" stroke="black" d="M351.9,-66.8C344.14,-66.8 339.1,-66.8 339.1,-66.8 339.1,-66.8 339.1,-103.69 339.1,-103.69"/>
<polygon fill="black" stroke="black" points="335.6,-103.69 339.1,-113.69 342.6,-103.69 335.6,-103.69"/>
</g>
<!-- SharedModule -->
<g id="node3" class="node">
<title>SharedModule</title>
<polygon fill="#8dd3c7" stroke="black" points="328.43,-84.8 325.43,-88.8 304.43,-88.8 301.43,-84.8 229.57,-84.8 229.57,-48.8 328.43,-48.8 328.43,-84.8"/>
<text text-anchor="middle" x="279" y="-62.6" font-family="Times,serif" font-size="14.00">SharedModule</text>
</g>
<!-- SharedModule&#45;&gt;WorkRequestsModule -->
<g id="edge2" class="edge">
<title>SharedModule&#45;&gt;WorkRequestsModule</title>
<path fill="none" stroke="black" d="M279,-84.91C279,-84.91 279,-103.79 279,-103.79"/>
<polygon fill="black" stroke="black" points="275.5,-103.79 279,-113.79 282.5,-103.79 275.5,-103.79"/>
</g>
<!-- WorkRequestsRoutingModule -->
<g id="node4" class="node">
<title>WorkRequestsRoutingModule</title>
<polygon fill="#8dd3c7" stroke="black" points="211.6,-84.8 208.6,-88.8 187.6,-88.8 184.6,-84.8 24.4,-84.8 24.4,-48.8 211.6,-48.8 211.6,-84.8"/>
<text text-anchor="middle" x="118" y="-62.6" font-family="Times,serif" font-size="14.00">WorkRequestsRoutingModule</text>
</g>
<!-- WorkRequestsRoutingModule&#45;&gt;WorkRequestsModule -->
<g id="edge3" class="edge">
<title>WorkRequestsRoutingModule&#45;&gt;WorkRequestsModule</title>
<path fill="none" stroke="black" d="M211.56,-66.8C217.21,-66.8 220.67,-66.8 220.67,-66.8 220.67,-66.8 220.67,-103.69 220.67,-103.69"/>
<polygon fill="black" stroke="black" points="217.17,-103.69 220.67,-113.69 224.17,-103.69 217.17,-103.69"/>
</g>
</g>
</svg>
