<?xml version="1.0" encoding="UTF-8" standalone="no"?>
<!DOCTYPE svg PUBLIC "-//W3C//DTD SVG 1.1//EN"
 "http://www.w3.org/Graphics/SVG/1.1/DTD/svg11.dtd">
<!-- Generated by graphviz version 5.0.0 (20220707.1540)
 -->
<!-- Title: dependencies Pages: 1 -->
<svg width="571pt" height="247pt"
 viewBox="0.00 0.00 571.00 246.80" xmlns="http://www.w3.org/2000/svg" xmlns:xlink="http://www.w3.org/1999/xlink">
<g id="graph0" class="graph" transform="scale(1 1) rotate(0) translate(4 242.8)">
<title>dependencies</title>
<polygon fill="white" stroke="transparent" points="-4,4 -4,-242.8 567,-242.8 567,4 -4,4"/>
<text text-anchor="middle" x="281.5" y="-8.2" font-family="sans-serif" font-size="14.00">dependencies</text>
<g id="clust1" class="cluster">
<title>cluster_FilesModule</title>
<polygon fill="none" stroke="black" stroke-dasharray="1,5" points="8,-32.8 8,-230.8 555,-230.8 555,-32.8 8,-32.8"/>
</g>
<g id="clust2" class="cluster">
<title>cluster_FilesModule_declarations</title>
<polygon fill="none" stroke="black" points="138,-40.8 138,-92.8 547,-92.8 547,-40.8 138,-40.8"/>
</g>
<g id="clust6" class="cluster">
<title>cluster_FilesModule_imports</title>
<polygon fill="none" stroke="black" points="16,-40.8 16,-92.8 130,-92.8 130,-40.8 16,-40.8"/>
</g>
<g id="clust7" class="cluster">
<title>cluster_FilesModule_exports</title>
<polygon fill="none" stroke="black" points="201,-170.8 201,-222.8 329,-222.8 329,-170.8 201,-170.8"/>
</g>
<!-- DialogAddDirectory -->
<g id="node1" class="node">
<title>DialogAddDirectory</title>
<polygon fill="#ffffb3" stroke="black" points="538.86,-84.8 407.14,-84.8 407.14,-48.8 538.86,-48.8 538.86,-84.8"/>
<text text-anchor="middle" x="473" y="-62.6" font-family="Times,serif" font-size="14.00">DialogAddDirectory</text>
</g>
<!-- FilesModule -->
<g id="node4" class="node">
<title>FilesModule</title>
<polygon fill="#8dd3c7" stroke="black" points="308.28,-149.8 305.28,-153.8 284.28,-153.8 281.28,-149.8 221.72,-149.8 221.72,-113.8 308.28,-113.8 308.28,-149.8"/>
<text text-anchor="middle" x="265" y="-127.6" font-family="Times,serif" font-size="14.00">FilesModule</text>
</g>
<!-- DialogAddDirectory&#45;&gt;FilesModule -->
<g id="edge1" class="edge">
<title>DialogAddDirectory&#45;&gt;FilesModule</title>
<path fill="none" stroke="black" d="M473,-84.91C473,-104.14 473,-131.8 473,-131.8 473,-131.8 318.35,-131.8 318.35,-131.8"/>
<polygon fill="black" stroke="black" points="318.35,-128.3 308.35,-131.8 318.35,-135.3 318.35,-128.3"/>
</g>
<!-- DialogUploadFile -->
<g id="node2" class="node">
<title>DialogUploadFile</title>
<polygon fill="#ffffb3" stroke="black" points="389.6,-84.8 272.4,-84.8 272.4,-48.8 389.6,-48.8 389.6,-84.8"/>
<text text-anchor="middle" x="331" y="-62.6" font-family="Times,serif" font-size="14.00">DialogUploadFile</text>
</g>
<!-- DialogUploadFile&#45;&gt;FilesModule -->
<g id="edge2" class="edge">
<title>DialogUploadFile&#45;&gt;FilesModule</title>
<path fill="none" stroke="black" d="M290.42,-84.91C290.42,-84.91 290.42,-103.79 290.42,-103.79"/>
<polygon fill="black" stroke="black" points="286.92,-103.79 290.42,-113.79 293.92,-103.79 286.92,-103.79"/>
</g>
<!-- FilesComponent -->
<g id="node3" class="node">
<title>FilesComponent</title>
<polygon fill="#ffffb3" stroke="black" points="254.06,-84.8 145.94,-84.8 145.94,-48.8 254.06,-48.8 254.06,-84.8"/>
<text text-anchor="middle" x="200" y="-62.6" font-family="Times,serif" font-size="14.00">FilesComponent</text>
</g>
<!-- FilesComponent&#45;&gt;FilesModule -->
<g id="edge3" class="edge">
<title>FilesComponent&#45;&gt;FilesModule</title>
<path fill="none" stroke="black" d="M237.94,-84.91C237.94,-84.91 237.94,-103.79 237.94,-103.79"/>
<polygon fill="black" stroke="black" points="234.44,-103.79 237.94,-113.79 241.44,-103.79 234.44,-103.79"/>
</g>
<!-- FilesComponent  -->
<g id="node6" class="node">
<title>FilesComponent </title>
<polygon fill="#fb8072" stroke="black" points="321.06,-214.8 208.94,-214.8 208.94,-178.8 321.06,-178.8 321.06,-214.8"/>
<text text-anchor="middle" x="265" y="-192.6" font-family="Times,serif" font-size="14.00">FilesComponent </text>
</g>
<!-- FilesModule&#45;&gt;FilesComponent  -->
<g id="edge5" class="edge">
<title>FilesModule&#45;&gt;FilesComponent </title>
<path fill="none" stroke="black" stroke-dasharray="5,2" d="M265,-149.91C265,-149.91 265,-168.79 265,-168.79"/>
<polygon fill="black" stroke="black" points="261.5,-168.79 265,-178.79 268.5,-168.79 261.5,-168.79"/>
</g>
<!-- SharedModule -->
<g id="node5" class="node">
<title>SharedModule</title>
<polygon fill="#8dd3c7" stroke="black" points="122.43,-84.8 119.43,-88.8 98.43,-88.8 95.43,-84.8 23.57,-84.8 23.57,-48.8 122.43,-48.8 122.43,-84.8"/>
<text text-anchor="middle" x="73" y="-62.6" font-family="Times,serif" font-size="14.00">SharedModule</text>
</g>
<!-- SharedModule&#45;&gt;FilesModule -->
<g id="edge4" class="edge">
<title>SharedModule&#45;&gt;FilesModule</title>
<path fill="none" stroke="black" d="M73,-84.91C73,-104.14 73,-131.8 73,-131.8 73,-131.8 211.43,-131.8 211.43,-131.8"/>
<polygon fill="black" stroke="black" points="211.43,-135.3 221.43,-131.8 211.43,-128.3 211.43,-135.3"/>
</g>
</g>
</svg>
