<?xml version="1.0" encoding="UTF-8" standalone="no"?>
<!DOCTYPE svg PUBLIC "-//W3C//DTD SVG 1.1//EN"
 "http://www.w3.org/Graphics/SVG/1.1/DTD/svg11.dtd">
<!-- Generated by graphviz version 5.0.0 (20220707.1540)
 -->
<!-- Title: dependencies Pages: 1 -->
<svg width="944pt" height="247pt"
 viewBox="0.00 0.00 944.00 246.80" xmlns="http://www.w3.org/2000/svg" xmlns:xlink="http://www.w3.org/1999/xlink">
<g id="graph0" class="graph" transform="scale(1 1) rotate(0) translate(4 242.8)">
<title>dependencies</title>
<polygon fill="white" stroke="transparent" points="-4,4 -4,-242.8 940,-242.8 940,4 -4,4"/>
<text text-anchor="middle" x="468" y="-8.2" font-family="sans-serif" font-size="14.00">dependencies</text>
<g id="clust1" class="cluster">
<title>cluster_AppModule</title>
<polygon fill="none" stroke="black" stroke-dasharray="1,5" points="8,-32.8 8,-230.8 928,-230.8 928,-32.8 8,-32.8"/>
</g>
<g id="clust2" class="cluster">
<title>cluster_AppModule_declarations</title>
<polygon fill="none" stroke="black" points="798,-40.8 798,-92.8 920,-92.8 920,-40.8 798,-40.8"/>
</g>
<g id="clust7" class="cluster">
<title>cluster_AppModule_providers</title>
<polygon fill="none" stroke="black" points="628,-40.8 628,-92.8 790,-92.8 790,-40.8 628,-40.8"/>
</g>
<g id="clust4" class="cluster">
<title>cluster_AppModule_imports</title>
<polygon fill="none" stroke="black" points="16,-40.8 16,-92.8 620,-92.8 620,-40.8 16,-40.8"/>
</g>
<g id="clust6" class="cluster">
<title>cluster_AppModule_bootstrap</title>
<polygon fill="none" stroke="black" points="369,-170.8 369,-222.8 493,-222.8 493,-170.8 369,-170.8"/>
</g>
<!-- AppComponent -->
<g id="node1" class="node">
<title>AppComponent</title>
<polygon fill="#ffffb3" stroke="black" points="911.94,-84.8 806.06,-84.8 806.06,-48.8 911.94,-48.8 911.94,-84.8"/>
<text text-anchor="middle" x="859" y="-62.6" font-family="Times,serif" font-size="14.00">AppComponent</text>
</g>
<!-- AppModule -->
<g id="node2" class="node">
<title>AppModule</title>
<polygon fill="#8dd3c7" stroke="black" points="472.66,-149.8 469.66,-153.8 448.66,-153.8 445.66,-149.8 389.34,-149.8 389.34,-113.8 472.66,-113.8 472.66,-149.8"/>
<text text-anchor="middle" x="431" y="-127.6" font-family="Times,serif" font-size="14.00">AppModule</text>
</g>
<!-- AppComponent&#45;&gt;AppModule -->
<g id="edge1" class="edge">
<title>AppComponent&#45;&gt;AppModule</title>
<path fill="none" stroke="black" d="M859,-85.09C859,-107.01 859,-140.8 859,-140.8 859,-140.8 482.82,-140.8 482.82,-140.8"/>
<polygon fill="black" stroke="black" points="482.82,-137.3 472.82,-140.8 482.82,-144.3 482.82,-137.3"/>
</g>
<!-- AppComponent  -->
<g id="node8" class="node">
<title>AppComponent </title>
<polygon fill="#80b1d3" stroke="black" points="485.44,-214.8 376.56,-214.8 376.56,-178.8 485.44,-178.8 485.44,-214.8"/>
<text text-anchor="middle" x="431" y="-192.6" font-family="Times,serif" font-size="14.00">AppComponent </text>
</g>
<!-- AppModule&#45;&gt;AppComponent  -->
<g id="edge7" class="edge">
<title>AppModule&#45;&gt;AppComponent </title>
<path fill="none" stroke="black" stroke-dasharray="1,5" d="M431,-149.91C431,-149.91 431,-168.79 431,-168.79"/>
<polygon fill="black" stroke="black" points="427.5,-168.79 431,-178.79 434.5,-168.79 427.5,-168.79"/>
</g>
<!-- AdminModule -->
<g id="node3" class="node">
<title>AdminModule</title>
<polygon fill="#8dd3c7" stroke="black" points="612.44,-84.8 609.44,-88.8 588.44,-88.8 585.44,-84.8 513.56,-84.8 513.56,-48.8 612.44,-48.8 612.44,-84.8"/>
<text text-anchor="middle" x="563" y="-62.6" font-family="Times,serif" font-size="14.00">AdminModule</text>
</g>
<!-- AdminModule&#45;&gt;AppModule -->
<g id="edge2" class="edge">
<title>AdminModule&#45;&gt;AppModule</title>
<path fill="none" stroke="black" d="M563,-84.83C563,-101.2 563,-122.8 563,-122.8 563,-122.8 482.77,-122.8 482.77,-122.8"/>
<polygon fill="black" stroke="black" points="482.77,-119.3 472.77,-122.8 482.77,-126.3 482.77,-119.3"/>
</g>
<!-- AppRoutingModule -->
<g id="node4" class="node">
<title>AppRoutingModule</title>
<polygon fill="#8dd3c7" stroke="black" points="495.28,-84.8 492.28,-88.8 471.28,-88.8 468.28,-84.8 366.72,-84.8 366.72,-48.8 495.28,-48.8 495.28,-84.8"/>
<text text-anchor="middle" x="431" y="-62.6" font-family="Times,serif" font-size="14.00">AppRoutingModule</text>
</g>
<!-- AppRoutingModule&#45;&gt;AppModule -->
<g id="edge3" class="edge">
<title>AppRoutingModule&#45;&gt;AppModule</title>
<path fill="none" stroke="black" d="M431,-84.91C431,-84.91 431,-103.79 431,-103.79"/>
<polygon fill="black" stroke="black" points="427.5,-103.79 431,-113.79 434.5,-103.79 427.5,-103.79"/>
</g>
<!-- MainModule -->
<g id="node5" class="node">
<title>MainModule</title>
<polygon fill="#8dd3c7" stroke="black" points="348.6,-84.8 345.6,-88.8 324.6,-88.8 321.6,-84.8 259.4,-84.8 259.4,-48.8 348.6,-48.8 348.6,-84.8"/>
<text text-anchor="middle" x="304" y="-62.6" font-family="Times,serif" font-size="14.00">MainModule</text>
</g>
<!-- MainModule&#45;&gt;AppModule -->
<g id="edge4" class="edge">
<title>MainModule&#45;&gt;AppModule</title>
<path fill="none" stroke="black" d="M304,-84.83C304,-101.2 304,-122.8 304,-122.8 304,-122.8 379.06,-122.8 379.06,-122.8"/>
<polygon fill="black" stroke="black" points="379.06,-126.3 389.06,-122.8 379.06,-119.3 379.06,-126.3"/>
</g>
<!-- OthersModule -->
<g id="node6" class="node">
<title>OthersModule</title>
<polygon fill="#8dd3c7" stroke="black" points="241.38,-84.8 238.38,-88.8 217.38,-88.8 214.38,-84.8 144.62,-84.8 144.62,-48.8 241.38,-48.8 241.38,-84.8"/>
<text text-anchor="middle" x="193" y="-62.6" font-family="Times,serif" font-size="14.00">OthersModule</text>
</g>
<!-- OthersModule&#45;&gt;AppModule -->
<g id="edge5" class="edge">
<title>OthersModule&#45;&gt;AppModule</title>
<path fill="none" stroke="black" d="M193,-84.91C193,-104.14 193,-131.8 193,-131.8 193,-131.8 379.27,-131.8 379.27,-131.8"/>
<polygon fill="black" stroke="black" points="379.27,-135.3 389.27,-131.8 379.27,-128.3 379.27,-135.3"/>
</g>
<!-- SessionModule -->
<g id="node7" class="node">
<title>SessionModule</title>
<polygon fill="#8dd3c7" stroke="black" points="126.34,-84.8 123.34,-88.8 102.34,-88.8 99.34,-84.8 23.66,-84.8 23.66,-48.8 126.34,-48.8 126.34,-84.8"/>
<text text-anchor="middle" x="75" y="-62.6" font-family="Times,serif" font-size="14.00">SessionModule</text>
</g>
<!-- SessionModule&#45;&gt;AppModule -->
<g id="edge6" class="edge">
<title>SessionModule&#45;&gt;AppModule</title>
<path fill="none" stroke="black" d="M75,-85.09C75,-107.01 75,-140.8 75,-140.8 75,-140.8 379.12,-140.8 379.12,-140.8"/>
<polygon fill="black" stroke="black" points="379.12,-144.3 389.12,-140.8 379.12,-137.3 379.12,-144.3"/>
</g>
<!-- AuthInterceptor -->
<g id="node9" class="node">
<title>AuthInterceptor</title>
<ellipse fill="#fdb462" stroke="black" cx="709" cy="-66.8" rx="72.92" ry="18"/>
<text text-anchor="middle" x="709" y="-62.6" font-family="Times,serif" font-size="14.00">AuthInterceptor</text>
</g>
<!-- AuthInterceptor&#45;&gt;AppModule -->
<g id="edge8" class="edge">
<title>AuthInterceptor&#45;&gt;AppModule</title>
<path fill="none" stroke="black" d="M709,-84.91C709,-104.14 709,-131.8 709,-131.8 709,-131.8 482.92,-131.8 482.92,-131.8"/>
<polygon fill="black" stroke="black" points="482.92,-128.3 472.92,-131.8 482.92,-135.3 482.92,-128.3"/>
</g>
</g>
</svg>
