<?xml version="1.0" encoding="UTF-8" standalone="no"?>
<!DOCTYPE svg PUBLIC "-//W3C//DTD SVG 1.1//EN"
 "http://www.w3.org/Graphics/SVG/1.1/DTD/svg11.dtd">
<!-- Generated by graphviz version 5.0.0 (20220707.1540)
 -->
<!-- Title: dependencies Pages: 1 -->
<svg width="909pt" height="174pt"
 viewBox="0.00 0.00 909.00 173.80" xmlns="http://www.w3.org/2000/svg" xmlns:xlink="http://www.w3.org/1999/xlink">
<g id="graph0" class="graph" transform="scale(1 1) rotate(0) translate(4 169.8)">
<title>dependencies</title>
<polygon fill="white" stroke="transparent" points="-4,4 -4,-169.8 905,-169.8 905,4 -4,4"/>
<text text-anchor="middle" x="450.5" y="-8.2" font-family="sans-serif" font-size="14.00">dependencies</text>
<g id="clust1" class="cluster">
<title>cluster_OthersModule</title>
<polygon fill="none" stroke="black" stroke-dasharray="1,5" points="8,-32.8 8,-157.8 893,-157.8 893,-32.8 8,-32.8"/>
</g>
<g id="clust7" class="cluster">
<title>cluster_OthersModule_imports</title>
<polygon fill="none" stroke="black" points="611,-40.8 611,-92.8 885,-92.8 885,-40.8 611,-40.8"/>
</g>
<g id="clust2" class="cluster">
<title>cluster_OthersModule_declarations</title>
<polygon fill="none" stroke="black" points="16,-40.8 16,-92.8 603,-92.8 603,-40.8 16,-40.8"/>
</g>
<!-- ContactoComponent -->
<g id="node1" class="node">
<title>ContactoComponent</title>
<polygon fill="#ffffb3" stroke="black" points="594.88,-84.8 463.12,-84.8 463.12,-48.8 594.88,-48.8 594.88,-84.8"/>
<text text-anchor="middle" x="529" y="-62.6" font-family="Times,serif" font-size="14.00">ContactoComponent</text>
</g>
<!-- OthersModule -->
<g id="node5" class="node">
<title>OthersModule</title>
<polygon fill="#8dd3c7" stroke="black" points="508.38,-149.8 505.38,-153.8 484.38,-153.8 481.38,-149.8 411.62,-149.8 411.62,-113.8 508.38,-113.8 508.38,-149.8"/>
<text text-anchor="middle" x="460" y="-127.6" font-family="Times,serif" font-size="14.00">OthersModule</text>
</g>
<!-- ContactoComponent&#45;&gt;OthersModule -->
<g id="edge1" class="edge">
<title>ContactoComponent&#45;&gt;OthersModule</title>
<path fill="none" stroke="black" d="M485.75,-84.91C485.75,-84.91 485.75,-103.79 485.75,-103.79"/>
<polygon fill="black" stroke="black" points="482.25,-103.79 485.75,-113.79 489.25,-103.79 482.25,-103.79"/>
</g>
<!-- HelpComponent -->
<g id="node2" class="node">
<title>HelpComponent</title>
<polygon fill="#ffffb3" stroke="black" points="445.05,-84.8 336.95,-84.8 336.95,-48.8 445.05,-48.8 445.05,-84.8"/>
<text text-anchor="middle" x="391" y="-62.6" font-family="Times,serif" font-size="14.00">HelpComponent</text>
</g>
<!-- HelpComponent&#45;&gt;OthersModule -->
<g id="edge2" class="edge">
<title>HelpComponent&#45;&gt;OthersModule</title>
<path fill="none" stroke="black" d="M428.42,-84.91C428.42,-84.91 428.42,-103.79 428.42,-103.79"/>
<polygon fill="black" stroke="black" points="424.92,-103.79 428.42,-113.79 431.92,-103.79 424.92,-103.79"/>
</g>
<!-- LegalInfoComponent -->
<g id="node3" class="node">
<title>LegalInfoComponent</title>
<polygon fill="#ffffb3" stroke="black" points="318.03,-84.8 181.97,-84.8 181.97,-48.8 318.03,-48.8 318.03,-84.8"/>
<text text-anchor="middle" x="250" y="-62.6" font-family="Times,serif" font-size="14.00">LegalInfoComponent</text>
</g>
<!-- LegalInfoComponent&#45;&gt;OthersModule -->
<g id="edge3" class="edge">
<title>LegalInfoComponent&#45;&gt;OthersModule</title>
<path fill="none" stroke="black" d="M250,-84.82C250,-102.17 250,-125.8 250,-125.8 250,-125.8 401.56,-125.8 401.56,-125.8"/>
<polygon fill="black" stroke="black" points="401.56,-129.3 411.56,-125.8 401.56,-122.3 401.56,-129.3"/>
</g>
<!-- Pagina404Component -->
<g id="node4" class="node">
<title>Pagina404Component</title>
<polygon fill="#ffffb3" stroke="black" points="164.44,-84.8 23.56,-84.8 23.56,-48.8 164.44,-48.8 164.44,-84.8"/>
<text text-anchor="middle" x="94" y="-62.6" font-family="Times,serif" font-size="14.00">Pagina404Component</text>
</g>
<!-- Pagina404Component&#45;&gt;OthersModule -->
<g id="edge4" class="edge">
<title>Pagina404Component&#45;&gt;OthersModule</title>
<path fill="none" stroke="black" d="M94,-85.08C94,-106.12 94,-137.8 94,-137.8 94,-137.8 401.4,-137.8 401.4,-137.8"/>
<polygon fill="black" stroke="black" points="401.4,-141.3 411.4,-137.8 401.4,-134.3 401.4,-141.3"/>
</g>
<!-- OthersRoutingModule -->
<g id="node6" class="node">
<title>OthersRoutingModule</title>
<polygon fill="#8dd3c7" stroke="black" points="876.99,-84.8 873.99,-88.8 852.99,-88.8 849.99,-84.8 735.01,-84.8 735.01,-48.8 876.99,-48.8 876.99,-84.8"/>
<text text-anchor="middle" x="806" y="-62.6" font-family="Times,serif" font-size="14.00">OthersRoutingModule</text>
</g>
<!-- OthersRoutingModule&#45;&gt;OthersModule -->
<g id="edge5" class="edge">
<title>OthersRoutingModule&#45;&gt;OthersModule</title>
<path fill="none" stroke="black" d="M806,-85.08C806,-106.12 806,-137.8 806,-137.8 806,-137.8 518.47,-137.8 518.47,-137.8"/>
<polygon fill="black" stroke="black" points="518.47,-134.3 508.47,-137.8 518.47,-141.3 518.47,-134.3"/>
</g>
<!-- SharedModule -->
<g id="node7" class="node">
<title>SharedModule</title>
<polygon fill="#8dd3c7" stroke="black" points="717.43,-84.8 714.43,-88.8 693.43,-88.8 690.43,-84.8 618.57,-84.8 618.57,-48.8 717.43,-48.8 717.43,-84.8"/>
<text text-anchor="middle" x="668" y="-62.6" font-family="Times,serif" font-size="14.00">SharedModule</text>
</g>
<!-- SharedModule&#45;&gt;OthersModule -->
<g id="edge6" class="edge">
<title>SharedModule&#45;&gt;OthersModule</title>
<path fill="none" stroke="black" d="M668,-84.82C668,-102.17 668,-125.8 668,-125.8 668,-125.8 518.5,-125.8 518.5,-125.8"/>
<polygon fill="black" stroke="black" points="518.5,-122.3 508.5,-125.8 518.5,-129.3 518.5,-122.3"/>
</g>
</g>
</svg>
