<?xml version="1.0" encoding="UTF-8" standalone="no"?>
<!DOCTYPE svg PUBLIC "-//W3C//DTD SVG 1.1//EN"
 "http://www.w3.org/Graphics/SVG/1.1/DTD/svg11.dtd">
<!-- Generated by graphviz version 5.0.0 (20220707.1540)
 -->
<!-- Title: dependencies Pages: 1 -->
<svg width="298pt" height="174pt"
 viewBox="0.00 0.00 298.00 173.80" xmlns="http://www.w3.org/2000/svg" xmlns:xlink="http://www.w3.org/1999/xlink">
<g id="graph0" class="graph" transform="scale(1 1) rotate(0) translate(4 169.8)">
<title>dependencies</title>
<polygon fill="white" stroke="transparent" points="-4,4 -4,-169.8 294,-169.8 294,4 -4,4"/>
<text text-anchor="middle" x="145" y="-8.2" font-family="sans-serif" font-size="14.00">dependencies</text>
<g id="clust1" class="cluster">
<title>cluster_AdminModule</title>
<polygon fill="none" stroke="black" stroke-dasharray="1,5" points="8,-32.8 8,-157.8 282,-157.8 282,-32.8 8,-32.8"/>
</g>
<g id="clust4" class="cluster">
<title>cluster_AdminModule_imports</title>
<polygon fill="none" stroke="black" points="160,-40.8 160,-92.8 274,-92.8 274,-40.8 160,-40.8"/>
</g>
<g id="clust2" class="cluster">
<title>cluster_AdminModule_declarations</title>
<polygon fill="none" stroke="black" points="16,-40.8 16,-92.8 152,-92.8 152,-40.8 16,-40.8"/>
</g>
<!-- AdminComponent -->
<g id="node1" class="node">
<title>AdminComponent</title>
<polygon fill="#ffffb3" stroke="black" points="144.22,-84.8 23.78,-84.8 23.78,-48.8 144.22,-48.8 144.22,-84.8"/>
<text text-anchor="middle" x="84" y="-62.6" font-family="Times,serif" font-size="14.00">AdminComponent</text>
</g>
<!-- AdminModule -->
<g id="node2" class="node">
<title>AdminModule</title>
<polygon fill="#8dd3c7" stroke="black" points="199.44,-149.8 196.44,-153.8 175.44,-153.8 172.44,-149.8 100.56,-149.8 100.56,-113.8 199.44,-113.8 199.44,-149.8"/>
<text text-anchor="middle" x="150" y="-127.6" font-family="Times,serif" font-size="14.00">AdminModule</text>
</g>
<!-- AdminComponent&#45;&gt;AdminModule -->
<g id="edge1" class="edge">
<title>AdminComponent&#45;&gt;AdminModule</title>
<path fill="none" stroke="black" d="M122.44,-84.91C122.44,-84.91 122.44,-103.79 122.44,-103.79"/>
<polygon fill="black" stroke="black" points="118.94,-103.79 122.44,-113.79 125.94,-103.79 118.94,-103.79"/>
</g>
<!-- SharedModule -->
<g id="node3" class="node">
<title>SharedModule</title>
<polygon fill="#8dd3c7" stroke="black" points="266.43,-84.8 263.43,-88.8 242.43,-88.8 239.43,-84.8 167.57,-84.8 167.57,-48.8 266.43,-48.8 266.43,-84.8"/>
<text text-anchor="middle" x="217" y="-62.6" font-family="Times,serif" font-size="14.00">SharedModule</text>
</g>
<!-- SharedModule&#45;&gt;AdminModule -->
<g id="edge2" class="edge">
<title>SharedModule&#45;&gt;AdminModule</title>
<path fill="none" stroke="black" d="M183.5,-84.91C183.5,-84.91 183.5,-103.79 183.5,-103.79"/>
<polygon fill="black" stroke="black" points="180,-103.79 183.5,-113.79 187,-103.79 180,-103.79"/>
</g>
</g>
</svg>
