<?xml version="1.0" encoding="UTF-8" standalone="no"?>
<!DOCTYPE svg PUBLIC "-//W3C//DTD SVG 1.1//EN"
 "http://www.w3.org/Graphics/SVG/1.1/DTD/svg11.dtd">
<!-- Generated by graphviz version 5.0.0 (20220707.1540)
 -->
<!-- Title: dependencies Pages: 1 -->
<svg width="807pt" height="247pt"
 viewBox="0.00 0.00 807.00 246.80" xmlns="http://www.w3.org/2000/svg" xmlns:xlink="http://www.w3.org/1999/xlink">
<g id="graph0" class="graph" transform="scale(1 1) rotate(0) translate(4 242.8)">
<title>dependencies</title>
<polygon fill="white" stroke="transparent" points="-4,4 -4,-242.8 803,-242.8 803,4 -4,4"/>
<text text-anchor="middle" x="399.5" y="-8.2" font-family="sans-serif" font-size="14.00">dependencies</text>
<g id="clust1" class="cluster">
<title>cluster_SharedModule</title>
<polygon fill="none" stroke="black" stroke-dasharray="1,5" points="8,-32.8 8,-230.8 791,-230.8 791,-32.8 8,-32.8"/>
</g>
<g id="clust9" class="cluster">
<title>cluster_SharedModule_exports</title>
<polygon fill="none" stroke="black" points="16,-170.8 16,-222.8 783,-222.8 783,-170.8 16,-170.8"/>
</g>
<g id="clust2" class="cluster">
<title>cluster_SharedModule_declarations</title>
<polygon fill="none" stroke="black" points="25,-40.8 25,-92.8 775,-92.8 775,-40.8 25,-40.8"/>
</g>
<!-- ConfirmDialog -->
<g id="node1" class="node">
<title>ConfirmDialog</title>
<polygon fill="#ffffb3" stroke="black" points="766.55,-84.8 665.45,-84.8 665.45,-48.8 766.55,-48.8 766.55,-84.8"/>
<text text-anchor="middle" x="716" y="-62.6" font-family="Times,serif" font-size="14.00">ConfirmDialog</text>
</g>
<!-- SharedModule -->
<g id="node6" class="node">
<title>SharedModule</title>
<polygon fill="#8dd3c7" stroke="black" points="425.43,-149.8 422.43,-153.8 401.43,-153.8 398.43,-149.8 326.57,-149.8 326.57,-113.8 425.43,-113.8 425.43,-149.8"/>
<text text-anchor="middle" x="376" y="-127.6" font-family="Times,serif" font-size="14.00">SharedModule</text>
</g>
<!-- ConfirmDialog&#45;&gt;SharedModule -->
<g id="edge1" class="edge">
<title>ConfirmDialog&#45;&gt;SharedModule</title>
<path fill="none" stroke="black" d="M734.34,-85.07C734.34,-103.36 734.34,-128.8 734.34,-128.8 734.34,-128.8 435.45,-128.8 435.45,-128.8"/>
<polygon fill="black" stroke="black" points="435.45,-125.3 425.45,-128.8 435.45,-132.3 435.45,-125.3"/>
</g>
<!-- CustomBreadcrumbComponent -->
<g id="node2" class="node">
<title>CustomBreadcrumbComponent</title>
<polygon fill="#ffffb3" stroke="black" points="647.09,-84.8 452.91,-84.8 452.91,-48.8 647.09,-48.8 647.09,-84.8"/>
<text text-anchor="middle" x="550" y="-62.6" font-family="Times,serif" font-size="14.00">CustomBreadcrumbComponent</text>
</g>
<!-- CustomBreadcrumbComponent&#45;&gt;SharedModule -->
<g id="edge2" class="edge">
<title>CustomBreadcrumbComponent&#45;&gt;SharedModule</title>
<path fill="none" stroke="black" d="M582.76,-84.81C582.76,-100.85 582.76,-121.8 582.76,-121.8 582.76,-121.8 435.26,-121.8 435.26,-121.8"/>
<polygon fill="black" stroke="black" points="435.26,-118.3 425.26,-121.8 435.26,-125.3 435.26,-118.3"/>
</g>
<!-- FooterComponent -->
<g id="node3" class="node">
<title>FooterComponent</title>
<polygon fill="#ffffb3" stroke="black" points="434.88,-84.8 317.12,-84.8 317.12,-48.8 434.88,-48.8 434.88,-84.8"/>
<text text-anchor="middle" x="376" y="-62.6" font-family="Times,serif" font-size="14.00">FooterComponent</text>
</g>
<!-- FooterComponent&#45;&gt;SharedModule -->
<g id="edge3" class="edge">
<title>FooterComponent&#45;&gt;SharedModule</title>
<path fill="none" stroke="black" d="M376,-84.91C376,-84.91 376,-103.79 376,-103.79"/>
<polygon fill="black" stroke="black" points="372.5,-103.79 376,-113.79 379.5,-103.79 372.5,-103.79"/>
</g>
<!-- HeaderComponent -->
<g id="node4" class="node">
<title>HeaderComponent</title>
<polygon fill="#ffffb3" stroke="black" points="298.75,-84.8 177.25,-84.8 177.25,-48.8 298.75,-48.8 298.75,-84.8"/>
<text text-anchor="middle" x="238" y="-62.6" font-family="Times,serif" font-size="14.00">HeaderComponent</text>
</g>
<!-- HeaderComponent&#45;&gt;SharedModule -->
<g id="edge4" class="edge">
<title>HeaderComponent&#45;&gt;SharedModule</title>
<path fill="none" stroke="black" d="M257.46,-84.81C257.46,-100.85 257.46,-121.8 257.46,-121.8 257.46,-121.8 316.76,-121.8 316.76,-121.8"/>
<polygon fill="black" stroke="black" points="316.76,-125.3 326.76,-121.8 316.76,-118.3 316.76,-125.3"/>
</g>
<!-- SidenavComponent -->
<g id="node5" class="node">
<title>SidenavComponent</title>
<polygon fill="#ffffb3" stroke="black" points="159.44,-84.8 32.56,-84.8 32.56,-48.8 159.44,-48.8 159.44,-84.8"/>
<text text-anchor="middle" x="96" y="-62.6" font-family="Times,serif" font-size="14.00">SidenavComponent</text>
</g>
<!-- SidenavComponent&#45;&gt;SharedModule -->
<g id="edge5" class="edge">
<title>SidenavComponent&#45;&gt;SharedModule</title>
<path fill="none" stroke="black" d="M113.57,-85.07C113.57,-103.36 113.57,-128.8 113.57,-128.8 113.57,-128.8 316.64,-128.8 316.64,-128.8"/>
<polygon fill="black" stroke="black" points="316.64,-132.3 326.64,-128.8 316.64,-125.3 316.64,-132.3"/>
</g>
<!-- ConfirmDialog  -->
<g id="node7" class="node">
<title>ConfirmDialog </title>
<polygon fill="#fb8072" stroke="black" points="774.54,-214.8 669.46,-214.8 669.46,-178.8 774.54,-178.8 774.54,-214.8"/>
<text text-anchor="middle" x="722" y="-192.6" font-family="Times,serif" font-size="14.00">ConfirmDialog </text>
</g>
<!-- SharedModule&#45;&gt;ConfirmDialog  -->
<g id="edge6" class="edge">
<title>SharedModule&#45;&gt;ConfirmDialog </title>
<path fill="none" stroke="black" stroke-dasharray="5,2" d="M425.5,-135.8C516.67,-135.8 701.91,-135.8 701.91,-135.8 701.91,-135.8 701.91,-168.5 701.91,-168.5"/>
<polygon fill="black" stroke="black" points="698.41,-168.5 701.91,-178.5 705.41,-168.5 698.41,-168.5"/>
</g>
<!-- CustomBreadcrumbComponent  -->
<g id="node8" class="node">
<title>CustomBreadcrumbComponent </title>
<polygon fill="#fb8072" stroke="black" points="651.59,-214.8 454.41,-214.8 454.41,-178.8 651.59,-178.8 651.59,-214.8"/>
<text text-anchor="middle" x="553" y="-192.6" font-family="Times,serif" font-size="14.00">CustomBreadcrumbComponent </text>
</g>
<!-- SharedModule&#45;&gt;CustomBreadcrumbComponent  -->
<g id="edge7" class="edge">
<title>SharedModule&#45;&gt;CustomBreadcrumbComponent </title>
<path fill="none" stroke="black" stroke-dasharray="5,2" d="M425.43,-142.8C466.59,-142.8 518.49,-142.8 518.49,-142.8 518.49,-142.8 518.49,-168.52 518.49,-168.52"/>
<polygon fill="black" stroke="black" points="514.99,-168.52 518.49,-178.52 521.99,-168.52 514.99,-168.52"/>
</g>
<!-- FooterComponent  -->
<g id="node9" class="node">
<title>FooterComponent </title>
<polygon fill="#fb8072" stroke="black" points="436.88,-214.8 315.12,-214.8 315.12,-178.8 436.88,-178.8 436.88,-214.8"/>
<text text-anchor="middle" x="376" y="-192.6" font-family="Times,serif" font-size="14.00">FooterComponent </text>
</g>
<!-- SharedModule&#45;&gt;FooterComponent  -->
<g id="edge8" class="edge">
<title>SharedModule&#45;&gt;FooterComponent </title>
<path fill="none" stroke="black" stroke-dasharray="5,2" d="M376,-149.91C376,-149.91 376,-168.79 376,-168.79"/>
<polygon fill="black" stroke="black" points="372.5,-168.79 376,-178.79 379.5,-168.79 372.5,-168.79"/>
</g>
<!-- HeaderComponent  -->
<g id="node10" class="node">
<title>HeaderComponent </title>
<polygon fill="#fb8072" stroke="black" points="297.75,-214.8 172.25,-214.8 172.25,-178.8 297.75,-178.8 297.75,-214.8"/>
<text text-anchor="middle" x="235" y="-192.6" font-family="Times,serif" font-size="14.00">HeaderComponent </text>
</g>
<!-- SharedModule&#45;&gt;HeaderComponent  -->
<g id="edge9" class="edge">
<title>SharedModule&#45;&gt;HeaderComponent </title>
<path fill="none" stroke="black" stroke-dasharray="5,2" d="M326.65,-142.8C280.06,-142.8 217.29,-142.8 217.29,-142.8 217.29,-142.8 217.29,-168.52 217.29,-168.52"/>
<polygon fill="black" stroke="black" points="213.79,-168.52 217.29,-178.52 220.79,-168.52 213.79,-168.52"/>
</g>
<!-- SidenavComponent  -->
<g id="node11" class="node">
<title>SidenavComponent </title>
<polygon fill="#fb8072" stroke="black" points="153.93,-214.8 24.07,-214.8 24.07,-178.8 153.93,-178.8 153.93,-214.8"/>
<text text-anchor="middle" x="89" y="-192.6" font-family="Times,serif" font-size="14.00">SidenavComponent </text>
</g>
<!-- SharedModule&#45;&gt;SidenavComponent  -->
<g id="edge10" class="edge">
<title>SharedModule&#45;&gt;SidenavComponent </title>
<path fill="none" stroke="black" stroke-dasharray="5,2" d="M326.67,-135.8C240.86,-135.8 73.18,-135.8 73.18,-135.8 73.18,-135.8 73.18,-168.5 73.18,-168.5"/>
<polygon fill="black" stroke="black" points="69.68,-168.5 73.18,-178.5 76.68,-168.5 69.68,-168.5"/>
</g>
</g>
</svg>
