<?xml version="1.0" encoding="UTF-8" standalone="no"?>
<!DOCTYPE svg PUBLIC "-//W3C//DTD SVG 1.1//EN"
 "http://www.w3.org/Graphics/SVG/1.1/DTD/svg11.dtd">
<!-- Generated by graphviz version 5.0.0 (20220707.1540)
 -->
<!-- Title: dependencies Pages: 1 -->
<svg width="473pt" height="247pt"
 viewBox="0.00 0.00 473.00 246.80" xmlns="http://www.w3.org/2000/svg" xmlns:xlink="http://www.w3.org/1999/xlink">
<g id="graph0" class="graph" transform="scale(1 1) rotate(0) translate(4 242.8)">
<title>dependencies</title>
<polygon fill="white" stroke="transparent" points="-4,4 -4,-242.8 469,-242.8 469,4 -4,4"/>
<text text-anchor="middle" x="232.5" y="-8.2" font-family="sans-serif" font-size="14.00">dependencies</text>
<g id="clust1" class="cluster">
<title>cluster_CalendarModule</title>
<polygon fill="none" stroke="black" stroke-dasharray="1,5" points="8,-32.8 8,-230.8 457,-230.8 457,-32.8 8,-32.8"/>
</g>
<g id="clust2" class="cluster">
<title>cluster_CalendarModule_declarations</title>
<polygon fill="none" stroke="black" points="138,-40.8 138,-92.8 449,-92.8 449,-40.8 138,-40.8"/>
</g>
<g id="clust5" class="cluster">
<title>cluster_CalendarModule_imports</title>
<polygon fill="none" stroke="black" points="16,-40.8 16,-92.8 130,-92.8 130,-40.8 16,-40.8"/>
</g>
<g id="clust6" class="cluster">
<title>cluster_CalendarModule_exports</title>
<polygon fill="none" stroke="black" points="111,-170.8 111,-222.8 295,-222.8 295,-170.8 111,-170.8"/>
</g>
<!-- CalendarWorkComponent -->
<g id="node1" class="node">
<title>CalendarWorkComponent</title>
<polygon fill="#ffffb3" stroke="black" points="440.74,-84.8 277.26,-84.8 277.26,-48.8 440.74,-48.8 440.74,-84.8"/>
<text text-anchor="middle" x="359" y="-62.6" font-family="Times,serif" font-size="14.00">CalendarWorkComponent</text>
</g>
<!-- CalendarModule -->
<g id="node3" class="node">
<title>CalendarModule</title>
<polygon fill="#8dd3c7" stroke="black" points="258.08,-149.8 255.08,-153.8 234.08,-153.8 231.08,-149.8 147.92,-149.8 147.92,-113.8 258.08,-113.8 258.08,-149.8"/>
<text text-anchor="middle" x="203" y="-127.6" font-family="Times,serif" font-size="14.00">CalendarModule</text>
</g>
<!-- CalendarWorkComponent&#45;&gt;CalendarModule -->
<g id="edge1" class="edge">
<title>CalendarWorkComponent&#45;&gt;CalendarModule</title>
<path fill="none" stroke="black" d="M281.88,-84.91C281.88,-104.14 281.88,-131.8 281.88,-131.8 281.88,-131.8 268.21,-131.8 268.21,-131.8"/>
<polygon fill="black" stroke="black" points="268.21,-128.3 258.21,-131.8 268.21,-135.3 268.21,-128.3"/>
</g>
<!-- DialogNewEvent -->
<g id="node2" class="node">
<title>DialogNewEvent</title>
<polygon fill="#ffffb3" stroke="black" points="259.69,-84.8 146.31,-84.8 146.31,-48.8 259.69,-48.8 259.69,-84.8"/>
<text text-anchor="middle" x="203" y="-62.6" font-family="Times,serif" font-size="14.00">DialogNewEvent</text>
</g>
<!-- DialogNewEvent&#45;&gt;CalendarModule -->
<g id="edge2" class="edge">
<title>DialogNewEvent&#45;&gt;CalendarModule</title>
<path fill="none" stroke="black" d="M203,-84.91C203,-84.91 203,-103.79 203,-103.79"/>
<polygon fill="black" stroke="black" points="199.5,-103.79 203,-113.79 206.5,-103.79 199.5,-103.79"/>
</g>
<!-- CalendarWorkComponent  -->
<g id="node5" class="node">
<title>CalendarWorkComponent </title>
<polygon fill="#fb8072" stroke="black" points="286.74,-214.8 119.26,-214.8 119.26,-178.8 286.74,-178.8 286.74,-214.8"/>
<text text-anchor="middle" x="203" y="-192.6" font-family="Times,serif" font-size="14.00">CalendarWorkComponent </text>
</g>
<!-- CalendarModule&#45;&gt;CalendarWorkComponent  -->
<g id="edge4" class="edge">
<title>CalendarModule&#45;&gt;CalendarWorkComponent </title>
<path fill="none" stroke="black" stroke-dasharray="5,2" d="M203,-149.91C203,-149.91 203,-168.79 203,-168.79"/>
<polygon fill="black" stroke="black" points="199.5,-168.79 203,-178.79 206.5,-168.79 199.5,-168.79"/>
</g>
<!-- SharedModule -->
<g id="node4" class="node">
<title>SharedModule</title>
<polygon fill="#8dd3c7" stroke="black" points="122.43,-84.8 119.43,-88.8 98.43,-88.8 95.43,-84.8 23.57,-84.8 23.57,-48.8 122.43,-48.8 122.43,-84.8"/>
<text text-anchor="middle" x="73" y="-62.6" font-family="Times,serif" font-size="14.00">SharedModule</text>
</g>
<!-- SharedModule&#45;&gt;CalendarModule -->
<g id="edge3" class="edge">
<title>SharedModule&#45;&gt;CalendarModule</title>
<path fill="none" stroke="black" d="M71.58,-84.91C71.58,-104.14 71.58,-131.8 71.58,-131.8 71.58,-131.8 137.65,-131.8 137.65,-131.8"/>
<polygon fill="black" stroke="black" points="137.65,-135.3 147.65,-131.8 137.65,-128.3 137.65,-135.3"/>
</g>
</g>
</svg>
