<?xml version="1.0" encoding="UTF-8" standalone="no"?>
<!DOCTYPE svg PUBLIC "-//W3C//DTD SVG 1.1//EN"
 "http://www.w3.org/Graphics/SVG/1.1/DTD/svg11.dtd">
<!-- Generated by graphviz version 5.0.0 (20220707.1540)
 -->
<!-- Title: dependencies Pages: 1 -->
<svg width="459pt" height="174pt"
 viewBox="0.00 0.00 459.00 173.80" xmlns="http://www.w3.org/2000/svg" xmlns:xlink="http://www.w3.org/1999/xlink">
<g id="graph0" class="graph" transform="scale(1 1) rotate(0) translate(4 169.8)">
<title>dependencies</title>
<polygon fill="white" stroke="transparent" points="-4,4 -4,-169.8 455,-169.8 455,4 -4,4"/>
<text text-anchor="middle" x="225.5" y="-8.2" font-family="sans-serif" font-size="14.00">dependencies</text>
<g id="clust1" class="cluster">
<title>cluster_ProfileModule</title>
<polygon fill="none" stroke="black" stroke-dasharray="1,5" points="8,-32.8 8,-157.8 443,-157.8 443,-32.8 8,-32.8"/>
</g>
<g id="clust4" class="cluster">
<title>cluster_ProfileModule_imports</title>
<polygon fill="none" stroke="black" points="160,-40.8 160,-92.8 435,-92.8 435,-40.8 160,-40.8"/>
</g>
<g id="clust2" class="cluster">
<title>cluster_ProfileModule_declarations</title>
<polygon fill="none" stroke="black" points="16,-40.8 16,-92.8 152,-92.8 152,-40.8 16,-40.8"/>
</g>
<!-- ProfileComponent -->
<g id="node1" class="node">
<title>ProfileComponent</title>
<polygon fill="#ffffb3" stroke="black" points="143.94,-84.8 24.06,-84.8 24.06,-48.8 143.94,-48.8 143.94,-84.8"/>
<text text-anchor="middle" x="84" y="-62.6" font-family="Times,serif" font-size="14.00">ProfileComponent</text>
</g>
<!-- ProfileModule -->
<g id="node2" class="node">
<title>ProfileModule</title>
<polygon fill="#8dd3c7" stroke="black" points="265.66,-149.8 262.66,-153.8 241.66,-153.8 238.66,-149.8 168.34,-149.8 168.34,-113.8 265.66,-113.8 265.66,-149.8"/>
<text text-anchor="middle" x="217" y="-127.6" font-family="Times,serif" font-size="14.00">ProfileModule</text>
</g>
<!-- ProfileComponent&#45;&gt;ProfileModule -->
<g id="edge1" class="edge">
<title>ProfileComponent&#45;&gt;ProfileModule</title>
<path fill="none" stroke="black" d="M84,-84.91C84,-104.14 84,-131.8 84,-131.8 84,-131.8 158.23,-131.8 158.23,-131.8"/>
<polygon fill="black" stroke="black" points="158.23,-135.3 168.23,-131.8 158.23,-128.3 158.23,-135.3"/>
</g>
<!-- ProfileRoutingModule -->
<g id="node3" class="node">
<title>ProfileRoutingModule</title>
<polygon fill="#8dd3c7" stroke="black" points="427.27,-84.8 424.27,-88.8 403.27,-88.8 400.27,-84.8 284.73,-84.8 284.73,-48.8 427.27,-48.8 427.27,-84.8"/>
<text text-anchor="middle" x="356" y="-62.6" font-family="Times,serif" font-size="14.00">ProfileRoutingModule</text>
</g>
<!-- ProfileRoutingModule&#45;&gt;ProfileModule -->
<g id="edge2" class="edge">
<title>ProfileRoutingModule&#45;&gt;ProfileModule</title>
<path fill="none" stroke="black" d="M356,-84.91C356,-104.14 356,-131.8 356,-131.8 356,-131.8 276.01,-131.8 276.01,-131.8"/>
<polygon fill="black" stroke="black" points="276.01,-128.3 266.01,-131.8 276.01,-135.3 276.01,-128.3"/>
</g>
<!-- SharedModule -->
<g id="node4" class="node">
<title>SharedModule</title>
<polygon fill="#8dd3c7" stroke="black" points="266.43,-84.8 263.43,-88.8 242.43,-88.8 239.43,-84.8 167.57,-84.8 167.57,-48.8 266.43,-48.8 266.43,-84.8"/>
<text text-anchor="middle" x="217" y="-62.6" font-family="Times,serif" font-size="14.00">SharedModule</text>
</g>
<!-- SharedModule&#45;&gt;ProfileModule -->
<g id="edge3" class="edge">
<title>SharedModule&#45;&gt;ProfileModule</title>
<path fill="none" stroke="black" d="M217,-84.91C217,-84.91 217,-103.79 217,-103.79"/>
<polygon fill="black" stroke="black" points="213.5,-103.79 217,-113.79 220.5,-103.79 213.5,-103.79"/>
</g>
</g>
</svg>
