<?xml version="1.0" encoding="UTF-8" standalone="no"?>
<!DOCTYPE svg PUBLIC "-//W3C//DTD SVG 1.1//EN"
 "http://www.w3.org/Graphics/SVG/1.1/DTD/svg11.dtd">
<!-- Generated by graphviz version 5.0.0 (20220707.1540)
 -->
<!-- Title: dependencies Pages: 1 -->
<svg width="694pt" height="174pt"
 viewBox="0.00 0.00 694.00 173.80" xmlns="http://www.w3.org/2000/svg" xmlns:xlink="http://www.w3.org/1999/xlink">
<g id="graph0" class="graph" transform="scale(1 1) rotate(0) translate(4 169.8)">
<title>dependencies</title>
<polygon fill="white" stroke="transparent" points="-4,4 -4,-169.8 690,-169.8 690,4 -4,4"/>
<text text-anchor="middle" x="343" y="-8.2" font-family="sans-serif" font-size="14.00">dependencies</text>
<g id="clust1" class="cluster">
<title>cluster_VideocallsModule</title>
<polygon fill="none" stroke="black" stroke-dasharray="1,5" points="8,-32.8 8,-157.8 678,-157.8 678,-32.8 8,-32.8"/>
</g>
<g id="clust2" class="cluster">
<title>cluster_VideocallsModule_declarations</title>
<polygon fill="none" stroke="black" points="320,-40.8 320,-92.8 670,-92.8 670,-40.8 320,-40.8"/>
</g>
<g id="clust5" class="cluster">
<title>cluster_VideocallsModule_imports</title>
<polygon fill="none" stroke="black" points="16,-40.8 16,-92.8 312,-92.8 312,-40.8 16,-40.8"/>
</g>
<!-- EntryCallDialogComponent -->
<g id="node1" class="node">
<title>EntryCallDialogComponent</title>
<polygon fill="#ffffb3" stroke="black" points="661.87,-84.8 488.13,-84.8 488.13,-48.8 661.87,-48.8 661.87,-84.8"/>
<text text-anchor="middle" x="575" y="-62.6" font-family="Times,serif" font-size="14.00">EntryCallDialogComponent</text>
</g>
<!-- VideocallsModule -->
<g id="node3" class="node">
<title>VideocallsModule</title>
<polygon fill="#8dd3c7" stroke="black" points="386.92,-149.8 383.92,-153.8 362.92,-153.8 359.92,-149.8 267.08,-149.8 267.08,-113.8 386.92,-113.8 386.92,-149.8"/>
<text text-anchor="middle" x="327" y="-127.6" font-family="Times,serif" font-size="14.00">VideocallsModule</text>
</g>
<!-- EntryCallDialogComponent&#45;&gt;VideocallsModule -->
<g id="edge1" class="edge">
<title>EntryCallDialogComponent&#45;&gt;VideocallsModule</title>
<path fill="none" stroke="black" d="M575,-84.91C575,-104.14 575,-131.8 575,-131.8 575,-131.8 396.72,-131.8 396.72,-131.8"/>
<polygon fill="black" stroke="black" points="396.72,-128.3 386.72,-131.8 396.72,-135.3 396.72,-128.3"/>
</g>
<!-- VideocallsComponent -->
<g id="node2" class="node">
<title>VideocallsComponent</title>
<polygon fill="#ffffb3" stroke="black" points="469.7,-84.8 328.3,-84.8 328.3,-48.8 469.7,-48.8 469.7,-84.8"/>
<text text-anchor="middle" x="399" y="-62.6" font-family="Times,serif" font-size="14.00">VideocallsComponent</text>
</g>
<!-- VideocallsComponent&#45;&gt;VideocallsModule -->
<g id="edge2" class="edge">
<title>VideocallsComponent&#45;&gt;VideocallsModule</title>
<path fill="none" stroke="black" d="M357.56,-84.91C357.56,-84.91 357.56,-103.79 357.56,-103.79"/>
<polygon fill="black" stroke="black" points="354.06,-103.79 357.56,-113.79 361.06,-103.79 354.06,-103.79"/>
</g>
<!-- SharedModule -->
<g id="node4" class="node">
<title>SharedModule</title>
<polygon fill="#8dd3c7" stroke="black" points="304.43,-84.8 301.43,-88.8 280.43,-88.8 277.43,-84.8 205.57,-84.8 205.57,-48.8 304.43,-48.8 304.43,-84.8"/>
<text text-anchor="middle" x="255" y="-62.6" font-family="Times,serif" font-size="14.00">SharedModule</text>
</g>
<!-- SharedModule&#45;&gt;VideocallsModule -->
<g id="edge3" class="edge">
<title>SharedModule&#45;&gt;VideocallsModule</title>
<path fill="none" stroke="black" d="M285.75,-84.91C285.75,-84.91 285.75,-103.79 285.75,-103.79"/>
<polygon fill="black" stroke="black" points="282.25,-103.79 285.75,-113.79 289.25,-103.79 282.25,-103.79"/>
</g>
<!-- VideocallsRoutingModule -->
<g id="node5" class="node">
<title>VideocallsRoutingModule</title>
<polygon fill="#8dd3c7" stroke="black" points="188.04,-84.8 185.04,-88.8 164.04,-88.8 161.04,-84.8 23.96,-84.8 23.96,-48.8 188.04,-48.8 188.04,-84.8"/>
<text text-anchor="middle" x="106" y="-62.6" font-family="Times,serif" font-size="14.00">VideocallsRoutingModule</text>
</g>
<!-- VideocallsRoutingModule&#45;&gt;VideocallsModule -->
<g id="edge4" class="edge">
<title>VideocallsRoutingModule&#45;&gt;VideocallsModule</title>
<path fill="none" stroke="black" d="M106,-84.91C106,-104.14 106,-131.8 106,-131.8 106,-131.8 257.19,-131.8 257.19,-131.8"/>
<polygon fill="black" stroke="black" points="257.19,-135.3 267.19,-131.8 257.19,-128.3 257.19,-135.3"/>
</g>
</g>
</svg>
