<?xml version="1.0" encoding="UTF-8" standalone="no"?>
<!DOCTYPE svg PUBLIC "-//W3C//DTD SVG 1.1//EN"
 "http://www.w3.org/Graphics/SVG/1.1/DTD/svg11.dtd">
<!-- Generated by graphviz version 5.0.0 (20220707.1540)
 -->
<!-- Title: dependencies Pages: 1 -->
<svg width="528pt" height="174pt"
 viewBox="0.00 0.00 528.00 173.80" xmlns="http://www.w3.org/2000/svg" xmlns:xlink="http://www.w3.org/1999/xlink">
<g id="graph0" class="graph" transform="scale(1 1) rotate(0) translate(4 169.8)">
<title>dependencies</title>
<polygon fill="white" stroke="transparent" points="-4,4 -4,-169.8 524,-169.8 524,4 -4,4"/>
<text text-anchor="middle" x="260" y="-8.2" font-family="sans-serif" font-size="14.00">dependencies</text>
<g id="clust1" class="cluster">
<title>cluster_NotificationsModule</title>
<polygon fill="none" stroke="black" stroke-dasharray="1,5" points="8,-32.8 8,-157.8 512,-157.8 512,-32.8 8,-32.8"/>
</g>
<g id="clust2" class="cluster">
<title>cluster_NotificationsModule_declarations</title>
<polygon fill="none" stroke="black" points="334,-40.8 334,-92.8 504,-92.8 504,-40.8 334,-40.8"/>
</g>
<g id="clust4" class="cluster">
<title>cluster_NotificationsModule_imports</title>
<polygon fill="none" stroke="black" points="16,-40.8 16,-92.8 326,-92.8 326,-40.8 16,-40.8"/>
</g>
<!-- NotificationsComponent -->
<g id="node1" class="node">
<title>NotificationsComponent</title>
<polygon fill="#ffffb3" stroke="black" points="496.43,-84.8 341.57,-84.8 341.57,-48.8 496.43,-48.8 496.43,-84.8"/>
<text text-anchor="middle" x="419" y="-62.6" font-family="Times,serif" font-size="14.00">NotificationsComponent</text>
</g>
<!-- NotificationsModule -->
<g id="node2" class="node">
<title>NotificationsModule</title>
<polygon fill="#8dd3c7" stroke="black" points="295.15,-149.8 292.15,-153.8 271.15,-153.8 268.15,-149.8 162.85,-149.8 162.85,-113.8 295.15,-113.8 295.15,-149.8"/>
<text text-anchor="middle" x="229" y="-127.6" font-family="Times,serif" font-size="14.00">NotificationsModule</text>
</g>
<!-- NotificationsComponent&#45;&gt;NotificationsModule -->
<g id="edge1" class="edge">
<title>NotificationsComponent&#45;&gt;NotificationsModule</title>
<path fill="none" stroke="black" d="M419,-84.91C419,-104.14 419,-131.8 419,-131.8 419,-131.8 305.19,-131.8 305.19,-131.8"/>
<polygon fill="black" stroke="black" points="305.19,-128.3 295.19,-131.8 305.19,-135.3 305.19,-128.3"/>
</g>
<!-- NotificationsRoutingModule -->
<g id="node3" class="node">
<title>NotificationsRoutingModule</title>
<polygon fill="#8dd3c7" stroke="black" points="317.77,-84.8 314.77,-88.8 293.77,-88.8 290.77,-84.8 140.23,-84.8 140.23,-48.8 317.77,-48.8 317.77,-84.8"/>
<text text-anchor="middle" x="229" y="-62.6" font-family="Times,serif" font-size="14.00">NotificationsRoutingModule</text>
</g>
<!-- NotificationsRoutingModule&#45;&gt;NotificationsModule -->
<g id="edge2" class="edge">
<title>NotificationsRoutingModule&#45;&gt;NotificationsModule</title>
<path fill="none" stroke="black" d="M229,-84.91C229,-84.91 229,-103.79 229,-103.79"/>
<polygon fill="black" stroke="black" points="225.5,-103.79 229,-113.79 232.5,-103.79 225.5,-103.79"/>
</g>
<!-- SharedModule -->
<g id="node4" class="node">
<title>SharedModule</title>
<polygon fill="#8dd3c7" stroke="black" points="122.43,-84.8 119.43,-88.8 98.43,-88.8 95.43,-84.8 23.57,-84.8 23.57,-48.8 122.43,-48.8 122.43,-84.8"/>
<text text-anchor="middle" x="73" y="-62.6" font-family="Times,serif" font-size="14.00">SharedModule</text>
</g>
<!-- SharedModule&#45;&gt;NotificationsModule -->
<g id="edge3" class="edge">
<title>SharedModule&#45;&gt;NotificationsModule</title>
<path fill="none" stroke="black" d="M73,-84.91C73,-104.14 73,-131.8 73,-131.8 73,-131.8 152.84,-131.8 152.84,-131.8"/>
<polygon fill="black" stroke="black" points="152.84,-135.3 162.84,-131.8 152.84,-128.3 152.84,-135.3"/>
</g>
</g>
</svg>
