<svg xmlns="http://www.w3.org/2000/svg" version="1.1" xmlns:xlink="http://www.w3.org/1999/xlink" xmlns:svgjs="http://svgjs.com/svgjs" width="1440" height="560" preserveAspectRatio="none" viewBox="0 0 1440 560"><g mask="url(&quot;#SvgjsMask1129&quot;)" fill="none"><path d="M1488 560L0 560 L0 338.37Q38.91 305.28, 72 344.19Q104.71 256.9, 192 289.62Q222.75 248.37, 264 279.12Q345.7 240.82, 384 322.53Q467.46 285.99, 504 369.45Q524.84 318.29, 576 339.13Q603.02 294.15, 648 321.17Q706.72 307.89, 720 366.61Q747.1 273.71, 840 300.8Q888.76 277.56, 912 326.32Q991.4 285.72, 1032 365.12Q1041.38 302.5, 1104 311.87Q1125.6 261.47, 1176 283.06Q1220.61 255.66, 1248 300.27Q1339.37 271.64, 1368 363.01Q1404.97 279.98, 1488 316.95z" fill="rgba(3, 129, 225, 1)"></path><path d="M1512 560L0 560 L0 416.73Q0.74 345.47, 72 346.21Q135.91 338.12, 144 402.03Q164.2 350.23, 216 370.43Q260.85 343.28, 288 388.14Q336.43 364.56, 360 412.99Q375.32 356.31, 432 371.63Q457.4 325.03, 504 350.43Q594.5 320.93, 624 411.43Q664.75 332.19, 744 372.94Q771.07 328, 816 355.07Q874.97 342.04, 888 401.02Q955.88 348.89, 1008 416.77Q1010.61 347.38, 1080 349.99Q1132.36 330.35, 1152 382.7Q1197.77 356.47, 1224 402.24Q1270.53 376.77, 1296 423.3Q1310.53 365.83, 1368 380.36Q1398.05 338.41, 1440 368.46Q1487.87 344.33, 1512 392.2z" fill="rgba(2, 105, 183, 1)"></path><path d="M1464 560L0 560 L0 448.2Q51.77 379.97, 120 431.73Q193.29 385.02, 240 458.31Q295.77 442.08, 312 497.85Q319.08 432.94, 384 440.02Q455.39 391.41, 504 462.81Q534.43 421.25, 576 451.68Q666.42 422.11, 696 512.53Q716.26 412.79, 816 433.05Q861.41 406.46, 888 451.87Q931.87 423.74, 960 467.61Q971.7 407.31, 1032 419.01Q1105.49 372.5, 1152 446Q1212.89 434.89, 1224 495.79Q1253.56 405.35, 1344 434.91Q1419.24 390.15, 1464 465.39z" fill="rgba(2, 75, 130, 1)"></path><path d="M1560 560L0 560 L0 527.06Q54.37 461.42, 120 515.79Q213.93 489.72, 240 583.65Q275.74 499.39, 360 535.13Q405.91 509.04, 432 554.95Q497.71 500.66, 552 566.37Q578.66 473.03, 672 499.7Q713.68 469.38, 744 511.07Q795.79 490.86, 816 542.65Q870.92 525.57, 888 580.49Q917.1 489.59, 1008 518.68Q1092.49 483.17, 1128 567.66Q1156.84 524.5, 1200 553.33Q1246.71 480.04, 1320 526.75Q1373.09 459.84, 1440 512.93Q1521.82 474.74, 1560 556.56z" fill="rgba(61, 153, 224, 1)"></path></g><defs><mask id="SvgjsMask1129"><rect width="1440" height="560" fill="#ffffff"></rect></mask></defs></svg>