<?xml version="1.0" encoding="UTF-8" standalone="no"?>
<!DOCTYPE svg PUBLIC "-//W3C//DTD SVG 1.1//EN"
 "http://www.w3.org/Graphics/SVG/1.1/DTD/svg11.dtd">
<!-- Generated by graphviz version 5.0.0 (20220707.1540)
 -->
<!-- Title: dependencies Pages: 1 -->
<svg width="1487pt" height="174pt"
 viewBox="0.00 0.00 1487.00 173.80" xmlns="http://www.w3.org/2000/svg" xmlns:xlink="http://www.w3.org/1999/xlink">
<g id="graph0" class="graph" transform="scale(1 1) rotate(0) translate(4 169.8)">
<title>dependencies</title>
<polygon fill="white" stroke="transparent" points="-4,4 -4,-169.8 1483,-169.8 1483,4 -4,4"/>
<text text-anchor="middle" x="739.5" y="-8.2" font-family="sans-serif" font-size="14.00">dependencies</text>
<g id="clust1" class="cluster">
<title>cluster_WorkListModule</title>
<polygon fill="none" stroke="black" stroke-dasharray="1,5" points="8,-32.8 8,-157.8 1471,-157.8 1471,-32.8 8,-32.8"/>
</g>
<g id="clust8" class="cluster">
<title>cluster_WorkListModule_imports</title>
<polygon fill="none" stroke="black" points="727,-40.8 727,-92.8 1463,-92.8 1463,-40.8 727,-40.8"/>
</g>
<g id="clust2" class="cluster">
<title>cluster_WorkListModule_declarations</title>
<polygon fill="none" stroke="black" points="16,-40.8 16,-92.8 719,-92.8 719,-40.8 16,-40.8"/>
</g>
<!-- DialogAddWork -->
<g id="node1" class="node">
<title>DialogAddWork</title>
<polygon fill="#ffffb3" stroke="black" points="711.09,-84.8 600.91,-84.8 600.91,-48.8 711.09,-48.8 711.09,-84.8"/>
<text text-anchor="middle" x="656" y="-62.6" font-family="Times,serif" font-size="14.00">DialogAddWork</text>
</g>
<!-- WorkListModule -->
<g id="node6" class="node">
<title>WorkListModule</title>
<polygon fill="#8dd3c7" stroke="black" points="870.71,-149.8 867.71,-153.8 846.71,-153.8 843.71,-149.8 757.29,-149.8 757.29,-113.8 870.71,-113.8 870.71,-149.8"/>
<text text-anchor="middle" x="814" y="-127.6" font-family="Times,serif" font-size="14.00">WorkListModule</text>
</g>
<!-- DialogAddWork&#45;&gt;WorkListModule -->
<g id="edge1" class="edge">
<title>DialogAddWork&#45;&gt;WorkListModule</title>
<path fill="none" stroke="black" d="M656,-85.04C656,-100.37 656,-119.8 656,-119.8 656,-119.8 746.96,-119.8 746.96,-119.8"/>
<polygon fill="black" stroke="black" points="746.96,-123.3 756.96,-119.8 746.96,-116.3 746.96,-123.3"/>
</g>
<!-- InfoComponent -->
<g id="node2" class="node">
<title>InfoComponent</title>
<polygon fill="#ffffb3" stroke="black" points="583.16,-84.8 478.84,-84.8 478.84,-48.8 583.16,-48.8 583.16,-84.8"/>
<text text-anchor="middle" x="531" y="-62.6" font-family="Times,serif" font-size="14.00">InfoComponent</text>
</g>
<!-- InfoComponent&#45;&gt;WorkListModule -->
<g id="edge2" class="edge">
<title>InfoComponent&#45;&gt;WorkListModule</title>
<path fill="none" stroke="black" d="M531,-84.82C531,-102.17 531,-125.8 531,-125.8 531,-125.8 747.07,-125.8 747.07,-125.8"/>
<polygon fill="black" stroke="black" points="747.07,-129.3 757.07,-125.8 747.07,-122.3 747.07,-129.3"/>
</g>
<!-- ManageWorkComponent -->
<g id="node3" class="node">
<title>ManageWorkComponent</title>
<polygon fill="#ffffb3" stroke="black" points="461.3,-84.8 302.7,-84.8 302.7,-48.8 461.3,-48.8 461.3,-84.8"/>
<text text-anchor="middle" x="382" y="-62.6" font-family="Times,serif" font-size="14.00">ManageWorkComponent</text>
</g>
<!-- ManageWorkComponent&#45;&gt;WorkListModule -->
<g id="edge3" class="edge">
<title>ManageWorkComponent&#45;&gt;WorkListModule</title>
<path fill="none" stroke="black" d="M382,-84.91C382,-104.14 382,-131.8 382,-131.8 382,-131.8 747.08,-131.8 747.08,-131.8"/>
<polygon fill="black" stroke="black" points="747.08,-135.3 757.08,-131.8 747.08,-128.3 747.08,-135.3"/>
</g>
<!-- ModalAddUsers -->
<g id="node4" class="node">
<title>ModalAddUsers</title>
<polygon fill="#ffffb3" stroke="black" points="285.05,-84.8 176.95,-84.8 176.95,-48.8 285.05,-48.8 285.05,-84.8"/>
<text text-anchor="middle" x="231" y="-62.6" font-family="Times,serif" font-size="14.00">ModalAddUsers</text>
</g>
<!-- ModalAddUsers&#45;&gt;WorkListModule -->
<g id="edge4" class="edge">
<title>ModalAddUsers&#45;&gt;WorkListModule</title>
<path fill="none" stroke="black" d="M231,-85.08C231,-106.12 231,-137.8 231,-137.8 231,-137.8 747.3,-137.8 747.3,-137.8"/>
<polygon fill="black" stroke="black" points="747.3,-141.3 757.3,-137.8 747.3,-134.3 747.3,-141.3"/>
</g>
<!-- WorkListComponent -->
<g id="node5" class="node">
<title>WorkListComponent</title>
<polygon fill="#ffffb3" stroke="black" points="158.49,-84.8 23.51,-84.8 23.51,-48.8 158.49,-48.8 158.49,-84.8"/>
<text text-anchor="middle" x="91" y="-62.6" font-family="Times,serif" font-size="14.00">WorkListComponent</text>
</g>
<!-- WorkListComponent&#45;&gt;WorkListModule -->
<g id="edge5" class="edge">
<title>WorkListComponent&#45;&gt;WorkListModule</title>
<path fill="none" stroke="black" d="M91,-84.89C91,-107.93 91,-144.8 91,-144.8 91,-144.8 747.27,-144.8 747.27,-144.8"/>
<polygon fill="black" stroke="black" points="747.27,-148.3 757.27,-144.8 747.27,-141.3 747.27,-148.3"/>
</g>
<!-- CalendarModule -->
<g id="node7" class="node">
<title>CalendarModule</title>
<polygon fill="#8dd3c7" stroke="black" points="1455.08,-84.8 1452.08,-88.8 1431.08,-88.8 1428.08,-84.8 1344.92,-84.8 1344.92,-48.8 1455.08,-48.8 1455.08,-84.8"/>
<text text-anchor="middle" x="1400" y="-62.6" font-family="Times,serif" font-size="14.00">CalendarModule</text>
</g>
<!-- CalendarModule&#45;&gt;WorkListModule -->
<g id="edge6" class="edge">
<title>CalendarModule&#45;&gt;WorkListModule</title>
<path fill="none" stroke="black" d="M1400,-84.89C1400,-107.93 1400,-144.8 1400,-144.8 1400,-144.8 880.72,-144.8 880.72,-144.8"/>
<polygon fill="black" stroke="black" points="880.72,-141.3 870.72,-144.8 880.72,-148.3 880.72,-141.3"/>
</g>
<!-- FilesModule -->
<g id="node8" class="node">
<title>FilesModule</title>
<polygon fill="#8dd3c7" stroke="black" points="1327.28,-84.8 1324.28,-88.8 1303.28,-88.8 1300.28,-84.8 1240.72,-84.8 1240.72,-48.8 1327.28,-48.8 1327.28,-84.8"/>
<text text-anchor="middle" x="1284" y="-62.6" font-family="Times,serif" font-size="14.00">FilesModule</text>
</g>
<!-- FilesModule&#45;&gt;WorkListModule -->
<g id="edge7" class="edge">
<title>FilesModule&#45;&gt;WorkListModule</title>
<path fill="none" stroke="black" d="M1284,-85.08C1284,-106.12 1284,-137.8 1284,-137.8 1284,-137.8 880.69,-137.8 880.69,-137.8"/>
<polygon fill="black" stroke="black" points="880.69,-134.3 870.69,-137.8 880.69,-141.3 880.69,-134.3"/>
</g>
<!-- ForoModule -->
<g id="node9" class="node">
<title>ForoModule</title>
<polygon fill="#8dd3c7" stroke="black" points="1223,-84.8 1220,-88.8 1199,-88.8 1196,-84.8 1137,-84.8 1137,-48.8 1223,-48.8 1223,-84.8"/>
<text text-anchor="middle" x="1180" y="-62.6" font-family="Times,serif" font-size="14.00">ForoModule</text>
</g>
<!-- ForoModule&#45;&gt;WorkListModule -->
<g id="edge8" class="edge">
<title>ForoModule&#45;&gt;WorkListModule</title>
<path fill="none" stroke="black" d="M1180,-84.91C1180,-104.14 1180,-131.8 1180,-131.8 1180,-131.8 880.79,-131.8 880.79,-131.8"/>
<polygon fill="black" stroke="black" points="880.79,-128.3 870.79,-131.8 880.79,-135.3 880.79,-128.3"/>
</g>
<!-- SharedModule -->
<g id="node10" class="node">
<title>SharedModule</title>
<polygon fill="#8dd3c7" stroke="black" points="1119.43,-84.8 1116.43,-88.8 1095.43,-88.8 1092.43,-84.8 1020.57,-84.8 1020.57,-48.8 1119.43,-48.8 1119.43,-84.8"/>
<text text-anchor="middle" x="1070" y="-62.6" font-family="Times,serif" font-size="14.00">SharedModule</text>
</g>
<!-- SharedModule&#45;&gt;WorkListModule -->
<g id="edge9" class="edge">
<title>SharedModule&#45;&gt;WorkListModule</title>
<path fill="none" stroke="black" d="M1070,-84.82C1070,-102.17 1070,-125.8 1070,-125.8 1070,-125.8 880.81,-125.8 880.81,-125.8"/>
<polygon fill="black" stroke="black" points="880.81,-122.3 870.81,-125.8 880.81,-129.3 880.81,-122.3"/>
</g>
<!-- TasksModule -->
<g id="node11" class="node">
<title>TasksModule</title>
<polygon fill="#8dd3c7" stroke="black" points="1003.21,-84.8 1000.21,-88.8 979.21,-88.8 976.21,-84.8 910.79,-84.8 910.79,-48.8 1003.21,-48.8 1003.21,-84.8"/>
<text text-anchor="middle" x="957" y="-62.6" font-family="Times,serif" font-size="14.00">TasksModule</text>
</g>
<!-- TasksModule&#45;&gt;WorkListModule -->
<g id="edge10" class="edge">
<title>TasksModule&#45;&gt;WorkListModule</title>
<path fill="none" stroke="black" d="M957,-85.04C957,-100.37 957,-119.8 957,-119.8 957,-119.8 880.93,-119.8 880.93,-119.8"/>
<polygon fill="black" stroke="black" points="880.93,-116.3 870.93,-119.8 880.93,-123.3 880.93,-116.3"/>
</g>
<!-- WorkListRoutingModule -->
<g id="node12" class="node">
<title>WorkListRoutingModule</title>
<polygon fill="#8dd3c7" stroke="black" points="893.32,-84.8 890.32,-88.8 869.32,-88.8 866.32,-84.8 734.68,-84.8 734.68,-48.8 893.32,-48.8 893.32,-84.8"/>
<text text-anchor="middle" x="814" y="-62.6" font-family="Times,serif" font-size="14.00">WorkListRoutingModule</text>
</g>
<!-- WorkListRoutingModule&#45;&gt;WorkListModule -->
<g id="edge11" class="edge">
<title>WorkListRoutingModule&#45;&gt;WorkListModule</title>
<path fill="none" stroke="black" d="M814,-84.91C814,-84.91 814,-103.79 814,-103.79"/>
<polygon fill="black" stroke="black" points="810.5,-103.79 814,-113.79 817.5,-103.79 810.5,-103.79"/>
</g>
</g>
</svg>
