<?xml version="1.0" encoding="UTF-8" standalone="no"?>
<!DOCTYPE svg PUBLIC "-//W3C//DTD SVG 1.1//EN"
 "http://www.w3.org/Graphics/SVG/1.1/DTD/svg11.dtd">
<!-- Generated by graphviz version 5.0.0 (20220707.1540)
 -->
<!-- Title: dependencies Pages: 1 -->
<svg width="724pt" height="247pt"
 viewBox="0.00 0.00 724.00 246.80" xmlns="http://www.w3.org/2000/svg" xmlns:xlink="http://www.w3.org/1999/xlink">
<g id="graph0" class="graph" transform="scale(1 1) rotate(0) translate(4 242.8)">
<title>dependencies</title>
<polygon fill="white" stroke="transparent" points="-4,4 -4,-242.8 720,-242.8 720,4 -4,4"/>
<text text-anchor="middle" x="358" y="-8.2" font-family="sans-serif" font-size="14.00">dependencies</text>
<g id="clust1" class="cluster">
<title>cluster_TasksModule</title>
<polygon fill="none" stroke="black" stroke-dasharray="1,5" points="8,-32.8 8,-230.8 708,-230.8 708,-32.8 8,-32.8"/>
</g>
<g id="clust7" class="cluster">
<title>cluster_TasksModule_imports</title>
<polygon fill="none" stroke="black" points="586,-40.8 586,-92.8 700,-92.8 700,-40.8 586,-40.8"/>
</g>
<g id="clust8" class="cluster">
<title>cluster_TasksModule_exports</title>
<polygon fill="none" stroke="black" points="238,-170.8 238,-222.8 509,-222.8 509,-170.8 238,-170.8"/>
</g>
<g id="clust2" class="cluster">
<title>cluster_TasksModule_declarations</title>
<polygon fill="none" stroke="black" points="16,-40.8 16,-92.8 578,-92.8 578,-40.8 16,-40.8"/>
</g>
<!-- BoardComponent -->
<g id="node1" class="node">
<title>BoardComponent</title>
<polygon fill="#ffffb3" stroke="black" points="569.55,-84.8 454.45,-84.8 454.45,-48.8 569.55,-48.8 569.55,-84.8"/>
<text text-anchor="middle" x="512" y="-62.6" font-family="Times,serif" font-size="14.00">BoardComponent</text>
</g>
<!-- TasksModule -->
<g id="node5" class="node">
<title>TasksModule</title>
<polygon fill="#8dd3c7" stroke="black" points="419.21,-149.8 416.21,-153.8 395.21,-153.8 392.21,-149.8 326.79,-149.8 326.79,-113.8 419.21,-113.8 419.21,-149.8"/>
<text text-anchor="middle" x="373" y="-127.6" font-family="Times,serif" font-size="14.00">TasksModule</text>
</g>
<!-- BoardComponent&#45;&gt;TasksModule -->
<g id="edge1" class="edge">
<title>BoardComponent&#45;&gt;TasksModule</title>
<path fill="none" stroke="black" d="M477.38,-84.82C477.38,-102.17 477.38,-125.8 477.38,-125.8 477.38,-125.8 429.39,-125.8 429.39,-125.8"/>
<polygon fill="black" stroke="black" points="429.39,-122.3 419.39,-125.8 429.39,-129.3 429.39,-122.3"/>
</g>
<!-- DialogManageTask -->
<g id="node2" class="node">
<title>DialogManageTask</title>
<polygon fill="#ffffb3" stroke="black" points="436.41,-84.8 309.59,-84.8 309.59,-48.8 436.41,-48.8 436.41,-84.8"/>
<text text-anchor="middle" x="373" y="-62.6" font-family="Times,serif" font-size="14.00">DialogManageTask</text>
</g>
<!-- DialogManageTask&#45;&gt;TasksModule -->
<g id="edge2" class="edge">
<title>DialogManageTask&#45;&gt;TasksModule</title>
<path fill="none" stroke="black" d="M373,-84.91C373,-84.91 373,-103.79 373,-103.79"/>
<polygon fill="black" stroke="black" points="369.5,-103.79 373,-113.79 376.5,-103.79 369.5,-103.79"/>
</g>
<!-- ListTasksComponent -->
<g id="node3" class="node">
<title>ListTasksComponent</title>
<polygon fill="#ffffb3" stroke="black" points="291.77,-84.8 156.23,-84.8 156.23,-48.8 291.77,-48.8 291.77,-84.8"/>
<text text-anchor="middle" x="224" y="-62.6" font-family="Times,serif" font-size="14.00">ListTasksComponent</text>
</g>
<!-- ListTasksComponent&#45;&gt;TasksModule -->
<g id="edge3" class="edge">
<title>ListTasksComponent&#45;&gt;TasksModule</title>
<path fill="none" stroke="black" d="M269.07,-84.82C269.07,-102.17 269.07,-125.8 269.07,-125.8 269.07,-125.8 316.81,-125.8 316.81,-125.8"/>
<polygon fill="black" stroke="black" points="316.81,-129.3 326.81,-125.8 316.81,-122.3 316.81,-129.3"/>
</g>
<!-- TasksComponent -->
<g id="node4" class="node">
<title>TasksComponent</title>
<polygon fill="#ffffb3" stroke="black" points="137.99,-84.8 24.01,-84.8 24.01,-48.8 137.99,-48.8 137.99,-84.8"/>
<text text-anchor="middle" x="81" y="-62.6" font-family="Times,serif" font-size="14.00">TasksComponent</text>
</g>
<!-- TasksComponent&#45;&gt;TasksModule -->
<g id="edge4" class="edge">
<title>TasksComponent&#45;&gt;TasksModule</title>
<path fill="none" stroke="black" d="M81,-85.08C81,-106.12 81,-137.8 81,-137.8 81,-137.8 316.73,-137.8 316.73,-137.8"/>
<polygon fill="black" stroke="black" points="316.73,-141.3 326.73,-137.8 316.73,-134.3 316.73,-141.3"/>
</g>
<!-- BoardComponent  -->
<g id="node7" class="node">
<title>BoardComponent </title>
<polygon fill="#fb8072" stroke="black" points="500.54,-214.8 381.46,-214.8 381.46,-178.8 500.54,-178.8 500.54,-214.8"/>
<text text-anchor="middle" x="441" y="-192.6" font-family="Times,serif" font-size="14.00">BoardComponent </text>
</g>
<!-- TasksModule&#45;&gt;BoardComponent  -->
<g id="edge6" class="edge">
<title>TasksModule&#45;&gt;BoardComponent </title>
<path fill="none" stroke="black" stroke-dasharray="5,2" d="M400.29,-149.91C400.29,-149.91 400.29,-168.79 400.29,-168.79"/>
<polygon fill="black" stroke="black" points="396.79,-168.79 400.29,-178.79 403.79,-168.79 396.79,-168.79"/>
</g>
<!-- TasksComponent  -->
<g id="node8" class="node">
<title>TasksComponent </title>
<polygon fill="#fb8072" stroke="black" points="363.99,-214.8 246.01,-214.8 246.01,-178.8 363.99,-178.8 363.99,-214.8"/>
<text text-anchor="middle" x="305" y="-192.6" font-family="Times,serif" font-size="14.00">TasksComponent </text>
</g>
<!-- TasksModule&#45;&gt;TasksComponent  -->
<g id="edge7" class="edge">
<title>TasksModule&#45;&gt;TasksComponent </title>
<path fill="none" stroke="black" stroke-dasharray="5,2" d="M345.32,-149.91C345.32,-149.91 345.32,-168.79 345.32,-168.79"/>
<polygon fill="black" stroke="black" points="341.82,-168.79 345.32,-178.79 348.82,-168.79 341.82,-168.79"/>
</g>
<!-- SharedModule -->
<g id="node6" class="node">
<title>SharedModule</title>
<polygon fill="#8dd3c7" stroke="black" points="692.43,-84.8 689.43,-88.8 668.43,-88.8 665.43,-84.8 593.57,-84.8 593.57,-48.8 692.43,-48.8 692.43,-84.8"/>
<text text-anchor="middle" x="643" y="-62.6" font-family="Times,serif" font-size="14.00">SharedModule</text>
</g>
<!-- SharedModule&#45;&gt;TasksModule -->
<g id="edge5" class="edge">
<title>SharedModule&#45;&gt;TasksModule</title>
<path fill="none" stroke="black" d="M643,-85.08C643,-106.12 643,-137.8 643,-137.8 643,-137.8 429.11,-137.8 429.11,-137.8"/>
<polygon fill="black" stroke="black" points="429.11,-134.3 419.11,-137.8 429.11,-141.3 429.11,-134.3"/>
</g>
</g>
</svg>
